<svg width="347" height="53" viewBox="0 0 347 53" fill="none" xmlns="http://www.w3.org/2000/svg">
<rect x="0.58003" y="0.527693" width="345.84" height="51.104" rx="20.4989" stroke="#A4A5B4" stroke-opacity="0.3" stroke-width="1.048"/>
<g clip-path="url(#clip0_403_1863)">
<path d="M29.8532 28.2661L29.1236 30.9897L26.457 31.0461C25.66 29.568 25.208 27.8769 25.208 26.0797C25.208 24.3419 25.6306 22.703 26.3798 21.26H26.3804L28.7544 21.6953L29.7944 24.0551C29.5767 24.6897 29.4581 25.3709 29.4581 26.0797C29.4582 26.849 29.5975 27.5861 29.8532 28.2661Z" fill="#FBBB00"/>
<path d="M45.9849 24.1219C46.1053 24.7559 46.1681 25.4106 46.1681 26.0797C46.1681 26.83 46.0892 27.5619 45.9389 28.2679C45.4287 30.6702 44.0957 32.7679 42.249 34.2524L42.2485 34.2518L39.2582 34.0992L38.835 31.4573C40.0604 30.7387 41.018 29.6141 41.5224 28.2679H35.9185V24.1219H45.9849Z" fill="#518EF8"/>
<path d="M42.2483 34.2518L42.2489 34.2524C40.4529 35.696 38.1715 36.5597 35.6879 36.5597C31.6969 36.5597 28.227 34.329 26.4569 31.0462L29.8531 28.2661C30.7382 30.6282 33.0167 32.3096 35.6879 32.3096C36.8361 32.3096 37.9118 31.9992 38.8348 31.4573L42.2483 34.2518Z" fill="#28B446"/>
<path d="M42.3773 18.0124L38.9822 20.7919C38.027 20.1948 36.8978 19.8498 35.688 19.8498C32.9562 19.8498 30.6351 21.6084 29.7944 24.0551L26.3803 21.26H26.3798C28.1239 17.8972 31.6376 15.5997 35.688 15.5997C38.2308 15.5997 40.5623 16.5055 42.3773 18.0124Z" fill="#F14336"/>
</g>
<path d="M114.983 24.1957H113.507C113.419 23.7709 113.266 23.3978 113.048 23.0762C112.834 22.7547 112.572 22.4847 112.262 22.2664C111.956 22.0441 111.617 21.8774 111.244 21.7662C110.871 21.6551 110.482 21.5995 110.077 21.5995C109.338 21.5995 108.669 21.7861 108.07 22.1592C107.475 22.5324 107 23.0822 106.647 23.8086C106.298 24.5351 106.123 25.4263 106.123 26.4822C106.123 27.5382 106.298 28.4294 106.647 29.1558C107 29.8823 107.475 30.4321 108.07 30.8052C108.669 31.1784 109.338 31.365 110.077 31.365C110.482 31.365 110.871 31.3094 111.244 31.1982C111.617 31.0871 111.956 30.9223 112.262 30.704C112.572 30.4817 112.834 30.2098 113.048 29.8882C113.266 29.5627 113.419 29.1896 113.507 28.7688H114.983C114.872 29.392 114.67 29.9498 114.376 30.442C114.082 30.9342 113.717 31.353 113.28 31.6984C112.844 32.0398 112.353 32.2998 111.809 32.4785C111.27 32.6571 110.692 32.7464 110.077 32.7464C109.037 32.7464 108.112 32.4923 107.302 31.9842C106.492 31.4761 105.855 30.7536 105.39 29.8168C104.926 28.8799 104.694 27.7684 104.694 26.4822C104.694 25.196 104.926 24.0845 105.39 23.1477C105.855 22.2108 106.492 21.4883 107.302 20.9802C108.112 20.4721 109.037 20.218 110.077 20.218C110.692 20.218 111.27 20.3074 111.809 20.486C112.353 20.6646 112.844 20.9266 113.28 21.272C113.717 21.6134 114.082 22.0302 114.376 22.5225C114.67 23.0107 114.872 23.5685 114.983 24.1957ZM120.895 32.7702C120.069 32.7702 119.344 32.5737 118.721 32.1807C118.102 31.7877 117.618 31.2379 117.268 30.5313C116.923 29.8247 116.75 28.999 116.75 28.0542C116.75 27.1015 116.923 26.2698 117.268 25.5593C117.618 24.8487 118.102 24.2969 118.721 23.9039C119.344 23.5109 120.069 23.3144 120.895 23.3144C121.72 23.3144 122.443 23.5109 123.062 23.9039C123.685 24.2969 124.17 24.8487 124.515 25.5593C124.864 26.2698 125.039 27.1015 125.039 28.0542C125.039 28.999 124.864 29.8247 124.515 30.5313C124.17 31.2379 123.685 31.7877 123.062 32.1807C122.443 32.5737 121.72 32.7702 120.895 32.7702ZM120.895 31.5079C121.522 31.5079 122.038 31.3471 122.443 31.0255C122.848 30.704 123.147 30.2812 123.342 29.7572C123.536 29.2332 123.634 28.6656 123.634 28.0542C123.634 27.4429 123.536 26.8732 123.342 26.3453C123.147 25.8173 122.848 25.3906 122.443 25.065C122.038 24.7395 121.522 24.5768 120.895 24.5768C120.267 24.5768 119.751 24.7395 119.346 25.065C118.942 25.3906 118.642 25.8173 118.447 26.3453C118.253 26.8732 118.156 27.4429 118.156 28.0542C118.156 28.6656 118.253 29.2332 118.447 29.7572C118.642 30.2812 118.942 30.704 119.346 31.0255C119.751 31.3471 120.267 31.5079 120.895 31.5079ZM128.589 27.0777V32.5797H127.184V23.4335H128.542V24.8626H128.661C128.875 24.3981 129.201 24.025 129.637 23.7431C130.074 23.4573 130.638 23.3144 131.328 23.3144C131.948 23.3144 132.49 23.4414 132.954 23.6955C133.419 23.9456 133.78 24.3267 134.038 24.8388C134.296 25.3469 134.425 25.99 134.425 26.768V32.5797H133.02V26.8633C133.02 26.1448 132.833 25.5851 132.46 25.1841C132.087 24.7792 131.575 24.5768 130.924 24.5768C130.475 24.5768 130.074 24.674 129.721 24.8685C129.371 25.0631 129.096 25.3469 128.893 25.72C128.691 26.0932 128.589 26.5457 128.589 27.0777ZM140.97 23.4335V24.6244H136.231V23.4335H140.97ZM137.612 21.2422H139.017V29.9597C139.017 30.3567 139.075 30.6544 139.19 30.8529C139.309 31.0474 139.46 31.1784 139.643 31.2459C139.829 31.3094 140.026 31.3411 140.232 31.3411C140.387 31.3411 140.514 31.3332 140.613 31.3173C140.712 31.2975 140.792 31.2816 140.851 31.2697L141.137 32.532C141.042 32.5678 140.909 32.6035 140.738 32.6392C140.567 32.6789 140.351 32.6988 140.089 32.6988C139.692 32.6988 139.303 32.6134 138.922 32.4427C138.545 32.272 138.231 32.012 137.981 31.6627C137.735 31.3133 137.612 30.8727 137.612 30.3408V21.2422ZM143.084 32.5797V23.4335H144.49V32.5797H143.084ZM143.799 21.9091C143.525 21.9091 143.289 21.8158 143.09 21.6293C142.896 21.4427 142.798 21.2184 142.798 20.9564C142.798 20.6944 142.896 20.4701 143.09 20.2835C143.289 20.097 143.525 20.0037 143.799 20.0037C144.073 20.0037 144.307 20.097 144.501 20.2835C144.7 20.4701 144.799 20.6944 144.799 20.9564C144.799 21.2184 144.7 21.4427 144.501 21.6293C144.307 21.8158 144.073 21.9091 143.799 21.9091ZM148.469 27.0777V32.5797H147.063V23.4335H148.421V24.8626H148.54C148.754 24.3981 149.08 24.025 149.517 23.7431C149.953 23.4573 150.517 23.3144 151.208 23.3144C151.827 23.3144 152.369 23.4414 152.833 23.6955C153.298 23.9456 153.659 24.3267 153.917 24.8388C154.175 25.3469 154.304 25.99 154.304 26.768V32.5797H152.899V26.8633C152.899 26.1448 152.712 25.5851 152.339 25.1841C151.966 24.7792 151.454 24.5768 150.803 24.5768C150.354 24.5768 149.953 24.674 149.6 24.8685C149.251 25.0631 148.975 25.3469 148.772 25.72C148.57 26.0932 148.469 26.5457 148.469 27.0777ZM162.636 28.8402V23.4335H164.041V32.5797H162.636V31.0315H162.541C162.326 31.496 161.993 31.8909 161.54 32.2165C161.088 32.538 160.516 32.6988 159.825 32.6988C159.254 32.6988 158.746 32.5737 158.301 32.3236C157.856 32.0696 157.507 31.6885 157.253 31.1804C156.999 30.6683 156.872 30.0232 156.872 29.2451V23.4335H158.277V29.1499C158.277 29.8168 158.464 30.3487 158.837 30.7457C159.214 31.1427 159.694 31.3411 160.278 31.3411C160.627 31.3411 160.983 31.2518 161.344 31.0732C161.709 30.8945 162.015 30.6206 162.261 30.2515C162.511 29.8823 162.636 29.4119 162.636 28.8402ZM170.45 32.7702C169.569 32.7702 168.808 32.5757 168.169 32.1867C167.534 31.7937 167.044 31.2459 166.698 30.5432C166.357 29.8366 166.186 29.0149 166.186 28.078C166.186 27.1412 166.357 26.3155 166.698 25.601C167.044 24.8824 167.524 24.3227 168.139 23.9218C168.759 23.5169 169.481 23.3144 170.307 23.3144C170.783 23.3144 171.254 23.3938 171.718 23.5526C172.183 23.7114 172.605 23.9694 172.986 24.3267C173.368 24.68 173.671 25.1484 173.898 25.732C174.124 26.3155 174.237 27.034 174.237 27.8875V28.483H167.187V27.2682H172.808C172.808 26.7522 172.705 26.2917 172.498 25.8868C172.296 25.4819 172.006 25.1623 171.629 24.9281C171.256 24.6939 170.815 24.5768 170.307 24.5768C169.747 24.5768 169.263 24.7157 168.854 24.9936C168.449 25.2675 168.138 25.6248 167.919 26.0654C167.701 26.506 167.592 26.9784 167.592 27.4826V28.2924C167.592 28.9831 167.711 29.5687 167.949 30.049C168.191 30.5254 168.527 30.8886 168.955 31.1387C169.384 31.3848 169.882 31.5079 170.45 31.5079C170.819 31.5079 171.152 31.4563 171.45 31.353C171.752 31.2459 172.012 31.0871 172.23 30.8767C172.449 30.6623 172.617 30.3963 172.736 30.0788L174.094 30.4599C173.951 30.9203 173.711 31.3253 173.374 31.6746C173.036 32.02 172.619 32.2899 172.123 32.4844C171.627 32.675 171.069 32.7702 170.45 32.7702ZM183.163 32.5797L180.376 23.4335H181.853L183.83 30.436H183.925L185.878 23.4335H187.379L189.308 30.4122H189.403L191.38 23.4335H192.857L190.07 32.5797H188.689L186.688 25.5533H186.545L184.544 32.5797H183.163ZM194.715 32.5797V23.4335H196.12V32.5797H194.715ZM195.429 21.9091C195.155 21.9091 194.919 21.8158 194.721 21.6293C194.526 21.4427 194.429 21.2184 194.429 20.9564C194.429 20.6944 194.526 20.4701 194.721 20.2835C194.919 20.097 195.155 20.0037 195.429 20.0037C195.703 20.0037 195.937 20.097 196.132 20.2835C196.33 20.4701 196.43 20.6944 196.43 20.9564C196.43 21.2184 196.33 21.4427 196.132 21.6293C195.937 21.8158 195.703 21.9091 195.429 21.9091ZM202.671 23.4335V24.6244H197.932V23.4335H202.671ZM199.313 21.2422H200.718V29.9597C200.718 30.3567 200.776 30.6544 200.891 30.8529C201.01 31.0474 201.161 31.1784 201.344 31.2459C201.53 31.3094 201.727 31.3411 201.933 31.3411C202.088 31.3411 202.215 31.3332 202.314 31.3173C202.413 31.2975 202.493 31.2816 202.552 31.2697L202.838 32.532C202.743 32.5678 202.61 32.6035 202.439 32.6392C202.268 32.6789 202.052 32.6988 201.79 32.6988C201.393 32.6988 201.004 32.6134 200.623 32.4427C200.246 32.272 199.932 32.012 199.682 31.6627C199.436 31.3133 199.313 30.8727 199.313 30.3408V21.2422ZM206.387 27.0777V32.5797H204.982V20.3848H206.387V24.8626H206.506C206.72 24.3902 207.042 24.0151 207.471 23.7372C207.903 23.4553 208.479 23.3144 209.198 23.3144C209.821 23.3144 210.367 23.4395 210.835 23.6895C211.303 23.9357 211.667 24.3148 211.925 24.8269C212.187 25.335 212.318 25.982 212.318 26.768V32.5797H210.912V26.8633C210.912 26.1369 210.724 25.5752 210.347 25.1782C209.974 24.7772 209.456 24.5768 208.793 24.5768C208.332 24.5768 207.919 24.674 207.554 24.8685C207.193 25.0631 206.907 25.3469 206.697 25.72C206.49 26.0932 206.387 26.5457 206.387 27.0777ZM228.132 24.1957C228.001 23.7947 227.828 23.4355 227.613 23.1179C227.403 22.7964 227.151 22.5225 226.857 22.2962C226.567 22.0699 226.238 21.8972 225.869 21.7781C225.5 21.659 225.095 21.5995 224.654 21.5995C223.932 21.5995 223.275 21.7861 222.683 22.1592C222.092 22.5324 221.621 23.0822 221.272 23.8086C220.923 24.5351 220.748 25.4263 220.748 26.4822C220.748 27.5382 220.925 28.4294 221.278 29.1558C221.631 29.8823 222.11 30.4321 222.713 30.8052C223.316 31.1784 223.995 31.365 224.749 31.365C225.448 31.365 226.063 31.2161 226.595 30.9184C227.131 30.6167 227.548 30.1919 227.846 29.6441C228.147 29.0923 228.298 28.4433 228.298 27.697L228.751 27.7922H225.083V26.4822H229.727V27.7922C229.727 28.7966 229.513 29.6699 229.084 30.4122C228.66 31.1546 228.072 31.7302 227.322 32.139C226.575 32.544 225.718 32.7464 224.749 32.7464C223.67 32.7464 222.721 32.4923 221.903 31.9842C221.089 31.4761 220.454 30.7536 219.998 29.8168C219.545 28.8799 219.319 27.7684 219.319 26.4822C219.319 25.5176 219.448 24.6502 219.706 23.8801C219.968 23.106 220.337 22.447 220.813 21.9032C221.29 21.3593 221.853 20.9425 222.504 20.6527C223.156 20.3629 223.872 20.218 224.654 20.218C225.297 20.218 225.897 20.3153 226.452 20.5098C227.012 20.7004 227.51 20.9723 227.947 21.3256C228.388 21.6749 228.755 22.0937 229.049 22.582C229.342 23.0663 229.545 23.6042 229.656 24.1957H228.132ZM235.782 32.7702C234.956 32.7702 234.231 32.5737 233.608 32.1807C232.989 31.7877 232.505 31.2379 232.155 30.5313C231.81 29.8247 231.637 28.999 231.637 28.0542C231.637 27.1015 231.81 26.2698 232.155 25.5593C232.505 24.8487 232.989 24.2969 233.608 23.9039C234.231 23.5109 234.956 23.3144 235.782 23.3144C236.607 23.3144 237.33 23.5109 237.949 23.9039C238.572 24.2969 239.057 24.8487 239.402 25.5593C239.751 26.2698 239.926 27.1015 239.926 28.0542C239.926 28.999 239.751 29.8247 239.402 30.5313C239.057 31.2379 238.572 31.7877 237.949 32.1807C237.33 32.5737 236.607 32.7702 235.782 32.7702ZM235.782 31.5079C236.409 31.5079 236.925 31.3471 237.33 31.0255C237.735 30.704 238.034 30.2812 238.229 29.7572C238.423 29.2332 238.521 28.6656 238.521 28.0542C238.521 27.4429 238.423 26.8732 238.229 26.3453C238.034 25.8173 237.735 25.3906 237.33 25.065C236.925 24.7395 236.409 24.5768 235.782 24.5768C235.154 24.5768 234.638 24.7395 234.233 25.065C233.829 25.3906 233.529 25.8173 233.334 26.3453C233.14 26.8732 233.043 27.4429 233.043 28.0542C233.043 28.6656 233.14 29.2332 233.334 29.7572C233.529 30.2812 233.829 30.704 234.233 31.0255C234.638 31.3471 235.154 31.5079 235.782 31.5079ZM245.787 32.7702C244.961 32.7702 244.237 32.5737 243.613 32.1807C242.994 31.7877 242.51 31.2379 242.16 30.5313C241.815 29.8247 241.642 28.999 241.642 28.0542C241.642 27.1015 241.815 26.2698 242.16 25.5593C242.51 24.8487 242.994 24.2969 243.613 23.9039C244.237 23.5109 244.961 23.3144 245.787 23.3144C246.612 23.3144 247.335 23.5109 247.954 23.9039C248.577 24.2969 249.062 24.8487 249.407 25.5593C249.756 26.2698 249.931 27.1015 249.931 28.0542C249.931 28.999 249.756 29.8247 249.407 30.5313C249.062 31.2379 248.577 31.7877 247.954 32.1807C247.335 32.5737 246.612 32.7702 245.787 32.7702ZM245.787 31.5079C246.414 31.5079 246.93 31.3471 247.335 31.0255C247.74 30.704 248.04 30.2812 248.234 29.7572C248.429 29.2332 248.526 28.6656 248.526 28.0542C248.526 27.4429 248.429 26.8732 248.234 26.3453C248.04 25.8173 247.74 25.3906 247.335 25.065C246.93 24.7395 246.414 24.5768 245.787 24.5768C245.16 24.5768 244.643 24.7395 244.239 25.065C243.834 25.3906 243.534 25.8173 243.339 26.3453C243.145 26.8732 243.048 27.4429 243.048 28.0542C243.048 28.6656 243.145 29.2332 243.339 29.7572C243.534 30.2812 243.834 30.704 244.239 31.0255C244.643 31.3471 245.16 31.5079 245.787 31.5079ZM255.768 36.2C255.089 36.2 254.506 36.1127 254.017 35.938C253.529 35.7673 253.122 35.5411 252.797 35.2592C252.475 34.9813 252.219 34.6836 252.029 34.366L253.148 33.58C253.275 33.7468 253.436 33.9373 253.63 34.1517C253.825 34.37 254.091 34.5586 254.428 34.7174C254.77 34.8801 255.216 34.9615 255.768 34.9615C256.506 34.9615 257.116 34.7829 257.596 34.4256C258.076 34.0683 258.317 33.5086 258.317 32.7464V30.8886H258.198C258.094 31.0553 257.947 31.2617 257.757 31.5079C257.57 31.75 257.3 31.9664 256.947 32.1569C256.598 32.3435 256.125 32.4368 255.53 32.4368C254.792 32.4368 254.129 32.2621 253.541 31.9128C252.958 31.5634 252.495 31.0553 252.154 30.3884C251.816 29.7215 251.648 28.9117 251.648 27.959C251.648 27.0221 251.812 26.2063 252.142 25.5116C252.471 24.813 252.93 24.2731 253.517 23.892C254.105 23.5069 254.784 23.3144 255.554 23.3144C256.149 23.3144 256.622 23.4137 256.971 23.6121C257.324 23.8067 257.594 24.029 257.781 24.279C257.971 24.5252 258.118 24.7276 258.221 24.8864H258.364V23.4335H259.722V32.8417C259.722 33.6277 259.543 34.2668 259.186 34.759C258.833 35.2553 258.356 35.6185 257.757 35.8487C257.161 36.0829 256.498 36.2 255.768 36.2ZM255.72 31.1744C256.284 31.1744 256.76 31.0454 257.15 30.7874C257.539 30.5293 257.834 30.1582 258.037 29.6739C258.239 29.1896 258.34 28.61 258.34 27.9351C258.34 27.2762 258.241 26.6946 258.043 26.1905C257.844 25.6863 257.55 25.2913 257.161 25.0055C256.772 24.7197 256.292 24.5768 255.72 24.5768C255.125 24.5768 254.629 24.7276 254.232 25.0293C253.839 25.331 253.543 25.7359 253.345 26.244C253.15 26.7522 253.053 27.3159 253.053 27.9351C253.053 28.5703 253.152 29.132 253.351 29.6203C253.553 30.1046 253.851 30.4857 254.244 30.7635C254.641 31.0375 255.133 31.1744 255.72 31.1744ZM263.7 20.3848V32.5797H262.294V20.3848H263.7ZM270.108 32.7702C269.227 32.7702 268.467 32.5757 267.828 32.1867C267.192 31.7937 266.702 31.2459 266.357 30.5432C266.015 29.8366 265.845 29.0149 265.845 28.078C265.845 27.1412 266.015 26.3155 266.357 25.601C266.702 24.8824 267.182 24.3227 267.798 23.9218C268.417 23.5169 269.14 23.3144 269.965 23.3144C270.442 23.3144 270.912 23.3938 271.376 23.5526C271.841 23.7114 272.264 23.9694 272.645 24.3267C273.026 24.68 273.33 25.1484 273.556 25.732C273.782 26.3155 273.895 27.034 273.895 27.8875V28.483H266.845V27.2682H272.466C272.466 26.7522 272.363 26.2917 272.156 25.8868C271.954 25.4819 271.664 25.1623 271.287 24.9281C270.914 24.6939 270.473 24.5768 269.965 24.5768C269.405 24.5768 268.921 24.7157 268.512 24.9936C268.107 25.2675 267.796 25.6248 267.577 26.0654C267.359 26.506 267.25 26.9784 267.25 27.4826V28.2924C267.25 28.9831 267.369 29.5687 267.607 30.049C267.849 30.5254 268.185 30.8886 268.614 31.1387C269.042 31.3848 269.54 31.5079 270.108 31.5079C270.477 31.5079 270.811 31.4563 271.108 31.353C271.41 31.2459 271.67 31.0871 271.889 30.8767C272.107 30.6623 272.276 30.3963 272.395 30.0788L273.752 30.4599C273.609 30.9203 273.369 31.3253 273.032 31.6746C272.694 32.02 272.278 32.2899 271.781 32.4844C271.285 32.675 270.727 32.7702 270.108 32.7702Z" fill="#32343D"/>
<defs>
<clipPath id="clip0_403_1863">
<rect width="20.96" height="20.96" fill="white" transform="translate(25.208 15.5997)"/>
</clipPath>
</defs>
</svg>
