<svg width="256" height="14" viewBox="0 0 256 14" fill="none" xmlns="http://www.w3.org/2000/svg">
<path d="M4.098 13.056H0.334729V0.861121H4.26473C5.4477 0.861121 6.45997 1.10526 7.30155 1.59353C8.14312 2.07783 8.7882 2.77451 9.23677 3.68358C9.68535 4.58867 9.90964 5.67239 9.90964 6.93476C9.90964 8.20506 9.68337 9.29871 9.23082 10.2157C8.77827 11.1287 8.1193 11.8314 7.25391 12.3236C6.38852 12.8119 5.33655 13.056 4.098 13.056ZM1.81146 11.746H4.00273C5.01103 11.746 5.84665 11.5515 6.50959 11.1625C7.17253 10.7735 7.66676 10.2197 7.99227 9.50117C8.31779 8.78265 8.48055 7.92718 8.48055 6.93476C8.48055 5.95027 8.31977 5.10274 7.99823 4.39217C7.67668 3.67762 7.19635 3.1298 6.55723 2.74871C5.91811 2.36365 5.12218 2.17112 4.16946 2.17112H1.81146V11.746ZM15.9118 13.2466C15.0861 13.2466 14.3617 13.0501 13.7384 12.6571C13.1191 12.2641 12.6348 11.7143 12.2855 11.0077C11.9401 10.3011 11.7675 9.47536 11.7675 8.53058C11.7675 7.57785 11.9401 6.7462 12.2855 6.03562C12.6348 5.32505 13.1191 4.77326 13.7384 4.38026C14.3617 3.98726 15.0861 3.79076 15.9118 3.79076C16.7375 3.79076 17.46 3.98726 18.0793 4.38026C18.7025 4.77326 19.1868 5.32505 19.5322 6.03562C19.8815 6.7462 20.0562 7.57785 20.0562 8.53058C20.0562 9.47536 19.8815 10.3011 19.5322 11.0077C19.1868 11.7143 18.7025 12.2641 18.0793 12.6571C17.46 13.0501 16.7375 13.2466 15.9118 13.2466ZM15.9118 11.9842C16.539 11.9842 17.0551 11.8234 17.46 11.5019C17.8649 11.1803 18.1646 10.7576 18.3591 10.2336C18.5537 9.70958 18.6509 9.14191 18.6509 8.53058C18.6509 7.91924 18.5537 7.34959 18.3591 6.82162C18.1646 6.29365 17.8649 5.86691 17.46 5.54139C17.0551 5.21588 16.539 5.05312 15.9118 5.05312C15.2846 5.05312 14.7685 5.21588 14.3636 5.54139C13.9587 5.86691 13.659 6.29365 13.4645 6.82162C13.27 7.34959 13.1727 7.91924 13.1727 8.53058C13.1727 9.14191 13.27 9.70958 13.4645 10.2336C13.659 10.7576 13.9587 11.1803 14.3636 11.5019C14.7685 11.8234 15.2846 11.9842 15.9118 11.9842ZM23.6066 7.55403V13.056H22.2013V3.90985H23.5589V5.33894H23.678C23.8924 4.87449 24.2179 4.50133 24.6546 4.21949C25.0912 3.93367 25.6549 3.79076 26.3457 3.79076C26.9649 3.79076 27.5068 3.91779 27.9713 4.17185C28.4357 4.42194 28.797 4.80303 29.055 5.31512C29.313 5.82324 29.442 6.46633 29.442 7.24439V13.056H28.0368V7.33967C28.0368 6.62115 27.8502 6.06142 27.477 5.66048C27.1039 5.25558 26.5918 5.05312 25.9408 5.05312C25.4922 5.05312 25.0912 5.15038 24.7379 5.34489C24.3886 5.53941 24.1127 5.82324 23.9103 6.19639C23.7078 6.56955 23.6066 7.02209 23.6066 7.55403ZM33.2485 0.861121V1.93294C33.2485 2.25845 33.1889 2.6058 33.0698 2.97499C32.9547 3.3402 32.784 3.69548 32.5578 4.04085C32.3354 4.38224 32.0655 4.67997 31.7479 4.93403L30.9858 4.31476C31.2358 3.95748 31.4522 3.58632 31.6348 3.20126C31.8214 2.81223 31.9147 2.39739 31.9147 1.95676V0.861121H33.2485ZM39.3281 3.90985V5.10076H34.5883V3.90985H39.3281ZM35.9697 1.71858H37.375V10.436C37.375 10.833 37.4325 11.1307 37.5477 11.3292C37.6668 11.5237 37.8176 11.6547 38.0002 11.7222C38.1868 11.7857 38.3833 11.8175 38.5897 11.8175C38.7445 11.8175 38.8716 11.8095 38.9708 11.7937C39.07 11.7738 39.1494 11.7579 39.209 11.746L39.4948 13.0084C39.3995 13.0441 39.2665 13.0798 39.0958 13.1156C38.9251 13.1553 38.7088 13.1751 38.4468 13.1751C38.0498 13.1751 37.6608 13.0898 37.2797 12.9191C36.9026 12.7484 36.589 12.4884 36.3389 12.139C36.0928 11.7897 35.9697 11.3491 35.9697 10.8171V1.71858ZM47.5632 7.55403V13.056H46.1579V0.861121H47.5632V5.33894H47.6823C47.8967 4.86655 48.2182 4.49141 48.6469 4.21353C49.0796 3.93168 49.6552 3.79076 50.3737 3.79076C50.997 3.79076 51.5428 3.9158 52.0112 4.16589C52.4797 4.41202 52.8429 4.79112 53.1009 5.30321C53.3629 5.81133 53.4939 6.45839 53.4939 7.24439V13.056H52.0887V7.33967C52.0887 6.61321 51.9001 6.0515 51.523 5.65453C51.1498 5.25359 50.6318 5.05312 49.9688 5.05312C49.5084 5.05312 49.0955 5.15038 48.7303 5.34489C48.3691 5.53941 48.0832 5.82324 47.8728 6.19639C47.6664 6.56955 47.5632 7.02209 47.5632 7.55403ZM58.7563 13.2704C58.1767 13.2704 57.6507 13.1612 57.1783 12.9429C56.7059 12.7206 56.3308 12.401 56.0529 11.9842C55.775 11.5634 55.6361 11.0553 55.6361 10.4598C55.6361 9.93585 55.7393 9.51109 55.9457 9.18558C56.1521 8.85609 56.428 8.59806 56.7734 8.41148C57.1188 8.22491 57.4999 8.08597 57.9167 7.99467C58.3375 7.89939 58.7602 7.82397 59.185 7.76839C59.7407 7.69694 60.1913 7.64335 60.5367 7.60762C60.886 7.56792 61.1401 7.50242 61.2989 7.41112C61.4616 7.31982 61.543 7.16103 61.543 6.93476V6.88712C61.543 6.29961 61.3822 5.84309 61.0607 5.51758C60.7431 5.19206 60.2608 5.0293 59.6137 5.0293C58.9428 5.0293 58.4169 5.17618 58.0358 5.46994C57.6547 5.7637 57.3867 6.0773 57.2319 6.41076L55.8981 5.93439C56.1363 5.37864 56.4538 4.94594 56.8508 4.6363C57.2517 4.3227 57.6884 4.10436 58.1608 3.9813C58.6372 3.85427 59.1056 3.79076 59.5661 3.79076C59.8598 3.79076 60.1973 3.82648 60.5784 3.89794C60.9634 3.96542 61.3346 4.10635 61.6919 4.32071C62.0531 4.53508 62.3528 4.85861 62.591 5.2913C62.8292 5.724 62.9483 6.30358 62.9483 7.03003V13.056H61.543V11.8175H61.4715C61.3763 12.016 61.2175 12.2283 60.9952 12.4546C60.7729 12.6809 60.4771 12.8734 60.1079 13.0322C59.7388 13.191 59.2882 13.2704 58.7563 13.2704ZM58.9706 12.008C59.5264 12.008 59.9948 11.8989 60.3759 11.6805C60.761 11.4622 61.0507 11.1803 61.2453 10.835C61.4437 10.4896 61.543 10.1264 61.543 9.7453V8.45912C61.4834 8.53058 61.3524 8.59608 61.15 8.65562C60.9515 8.7112 60.7213 8.76082 60.4593 8.80448C60.2012 8.84418 59.9492 8.87991 59.703 8.91167C59.4609 8.93945 59.2644 8.96327 59.1135 8.98312C58.7483 9.03076 58.4069 9.10817 58.0894 9.21535C57.7757 9.31856 57.5217 9.47536 57.3272 9.68576C57.1366 9.89218 57.0414 10.174 57.0414 10.5313C57.0414 11.0196 57.222 11.3888 57.5832 11.6388C57.9484 11.885 58.4109 12.008 58.9706 12.008ZM72.6646 3.90985L69.2824 13.056H67.8533L64.4711 3.90985H65.9955L68.5202 11.1982H68.6155L71.1402 3.90985H72.6646ZM78.0267 13.2466C77.1454 13.2466 76.3852 13.0521 75.7461 12.663C75.1109 12.27 74.6207 11.7222 74.2753 11.0196C73.9339 10.313 73.7632 9.49124 73.7632 8.55439C73.7632 7.61755 73.9339 6.79185 74.2753 6.0773C74.6207 5.35879 75.101 4.79906 75.7163 4.39812C76.3356 3.99321 77.058 3.79076 77.8837 3.79076C78.3601 3.79076 78.8305 3.87015 79.295 4.02894C79.7594 4.18773 80.1822 4.44576 80.5633 4.80303C80.9444 5.15633 81.2481 5.62476 81.4743 6.2083C81.7006 6.79185 81.8137 7.51036 81.8137 8.36385V8.9593H74.7636V7.74458H80.3847C80.3847 7.22851 80.2814 6.76803 80.075 6.36312C79.8726 5.95821 79.5828 5.63865 79.2057 5.40444C78.8325 5.17023 78.3919 5.05312 77.8837 5.05312C77.324 5.05312 76.8397 5.19206 76.4308 5.46994C76.0259 5.74385 75.7143 6.10112 75.496 6.54176C75.2776 6.98239 75.1685 7.45479 75.1685 7.95894V8.76876C75.1685 9.45948 75.2876 10.045 75.5257 10.5253C75.7679 11.0017 76.1033 11.3649 76.5321 11.615C76.9608 11.8612 77.459 11.9842 78.0267 11.9842C78.3958 11.9842 78.7293 11.9326 79.027 11.8294C79.3287 11.7222 79.5887 11.5634 79.8071 11.353C80.0254 11.1387 80.1941 10.8727 80.3132 10.5551L81.6708 10.9362C81.5279 11.3967 81.2878 11.8016 80.9503 12.1509C80.6129 12.4963 80.1961 12.7662 79.6999 12.9608C79.2037 13.1513 78.6459 13.2466 78.0267 13.2466ZM91.3589 13.2704C90.7793 13.2704 90.2533 13.1612 89.7809 12.9429C89.3085 12.7206 88.9334 12.401 88.6555 11.9842C88.3776 11.5634 88.2387 11.0553 88.2387 10.4598C88.2387 9.93585 88.3419 9.51109 88.5483 9.18558C88.7548 8.85609 89.0307 8.59806 89.376 8.41148C89.7214 8.22491 90.1025 8.08597 90.5193 7.99467C90.9401 7.89939 91.3629 7.82397 91.7876 7.76839C92.3434 7.69694 92.7939 7.64335 93.1393 7.60762C93.4886 7.56792 93.7427 7.50242 93.9015 7.41112C94.0642 7.31982 94.1456 7.16103 94.1456 6.93476V6.88712C94.1456 6.29961 93.9848 5.84309 93.6633 5.51758C93.3457 5.19206 92.8634 5.0293 92.2163 5.0293C91.5455 5.0293 91.0195 5.17618 90.6384 5.46994C90.2573 5.7637 89.9893 6.0773 89.8345 6.41076L88.5007 5.93439C88.7389 5.37864 89.0565 4.94594 89.4534 4.6363C89.8544 4.3227 90.291 4.10436 90.7634 3.9813C91.2398 3.85427 91.7082 3.79076 92.1687 3.79076C92.4625 3.79076 92.7999 3.82648 93.181 3.89794C93.566 3.96542 93.9372 4.10635 94.2945 4.32071C94.6557 4.53508 94.9554 4.85861 95.1936 5.2913C95.4318 5.724 95.5509 6.30358 95.5509 7.03003V13.056H94.1456V11.8175H94.0742C93.9789 12.016 93.8201 12.2283 93.5978 12.4546C93.3755 12.6809 93.0797 12.8734 92.7106 13.0322C92.3414 13.191 91.8908 13.2704 91.3589 13.2704ZM91.5732 12.008C92.129 12.008 92.5974 11.8989 92.9785 11.6805C93.3636 11.4622 93.6534 11.1803 93.8479 10.835C94.0464 10.4896 94.1456 10.1264 94.1456 9.7453V8.45912C94.0861 8.53058 93.9551 8.59608 93.7526 8.65562C93.5541 8.7112 93.3239 8.76082 93.0619 8.80448C92.8039 8.84418 92.5518 8.87991 92.3057 8.91167C92.0635 8.93945 91.867 8.96327 91.7162 8.98312C91.3509 9.03076 91.0096 9.10817 90.692 9.21535C90.3784 9.31856 90.1243 9.47536 89.9298 9.68576C89.7392 9.89218 89.644 10.174 89.644 10.5313C89.644 11.0196 89.8246 11.3888 90.1858 11.6388C90.5511 11.885 91.0135 12.008 91.5732 12.008ZM99.5211 7.55403V13.056H98.1158V3.90985H99.4734V5.33894H99.5925C99.8069 4.87449 100.132 4.50133 100.569 4.21949C101.006 3.93367 101.569 3.79076 102.26 3.79076C102.879 3.79076 103.421 3.91779 103.886 4.17185C104.35 4.42194 104.711 4.80303 104.969 5.31512C105.228 5.82324 105.357 6.46633 105.357 7.24439V13.056H103.951V7.33967C103.951 6.62115 103.765 6.06142 103.392 5.66048C103.018 5.25558 102.506 5.05312 101.855 5.05312C101.407 5.05312 101.006 5.15038 100.652 5.34489C100.303 5.53941 100.027 5.82324 99.8248 6.19639C99.6223 6.56955 99.5211 7.02209 99.5211 7.55403ZM115.332 13.2704C114.752 13.2704 114.226 13.1612 113.754 12.9429C113.282 12.7206 112.906 12.401 112.629 11.9842C112.351 11.5634 112.212 11.0553 112.212 10.4598C112.212 9.93585 112.315 9.51109 112.521 9.18558C112.728 8.85609 113.004 8.59806 113.349 8.41148C113.694 8.22491 114.075 8.08597 114.492 7.99467C114.913 7.89939 115.336 7.82397 115.761 7.76839C116.316 7.69694 116.767 7.64335 117.112 7.60762C117.462 7.56792 117.716 7.50242 117.874 7.41112C118.037 7.31982 118.119 7.16103 118.119 6.93476V6.88712C118.119 6.29961 117.958 5.84309 117.636 5.51758C117.319 5.19206 116.836 5.0293 116.189 5.0293C115.518 5.0293 114.992 5.17618 114.611 5.46994C114.23 5.7637 113.962 6.0773 113.808 6.41076L112.474 5.93439C112.712 5.37864 113.029 4.94594 113.426 4.6363C113.827 4.3227 114.264 4.10436 114.736 3.9813C115.213 3.85427 115.681 3.79076 116.142 3.79076C116.435 3.79076 116.773 3.82648 117.154 3.89794C117.539 3.96542 117.91 4.10635 118.267 4.32071C118.629 4.53508 118.928 4.85861 119.167 5.2913C119.405 5.724 119.524 6.30358 119.524 7.03003V13.056H118.119V11.8175H118.047C117.952 12.016 117.793 12.2283 117.571 12.4546C117.348 12.6809 117.053 12.8734 116.684 13.0322C116.314 13.191 115.864 13.2704 115.332 13.2704ZM115.546 12.008C116.102 12.008 116.57 11.8989 116.952 11.6805C117.337 11.4622 117.626 11.1803 117.821 10.835C118.019 10.4896 118.119 10.1264 118.119 9.7453V8.45912C118.059 8.53058 117.928 8.59608 117.726 8.65562C117.527 8.7112 117.297 8.76082 117.035 8.80448C116.777 8.84418 116.525 8.87991 116.279 8.91167C116.037 8.93945 115.84 8.96327 115.689 8.98312C115.324 9.03076 114.983 9.10817 114.665 9.21535C114.351 9.31856 114.097 9.47536 113.903 9.68576C113.712 9.89218 113.617 10.174 113.617 10.5313C113.617 11.0196 113.798 11.3888 114.159 11.6388C114.524 11.885 114.987 12.008 115.546 12.008ZM125.804 13.2466C124.947 13.2466 124.209 13.0441 123.589 12.6392C122.97 12.2343 122.494 11.6766 122.16 10.966C121.827 10.2554 121.66 9.44361 121.66 8.53058C121.66 7.60167 121.831 6.78192 122.172 6.07135C122.518 5.3568 122.998 4.79906 123.613 4.39812C124.232 3.99321 124.955 3.79076 125.781 3.79076C126.424 3.79076 127.003 3.90985 127.519 4.14803C128.035 4.38621 128.458 4.71967 128.788 5.14839C129.117 5.57712 129.322 6.0773 129.401 6.64894H127.996C127.889 6.23212 127.65 5.86294 127.281 5.54139C126.916 5.21588 126.424 5.05312 125.804 5.05312C125.257 5.05312 124.776 5.19603 124.363 5.48185C123.955 5.7637 123.635 6.16265 123.405 6.67871C123.178 7.1908 123.065 7.79221 123.065 8.48294C123.065 9.18955 123.177 9.80485 123.399 10.3288C123.625 10.8528 123.943 11.2597 124.352 11.5495C124.764 11.8393 125.249 11.9842 125.804 11.9842C126.17 11.9842 126.501 11.9207 126.799 11.7937C127.097 11.6666 127.349 11.484 127.555 11.2458C127.762 11.0077 127.908 10.7218 127.996 10.3884H129.401C129.322 10.9283 129.125 11.4146 128.811 11.8473C128.502 12.276 128.091 12.6174 127.579 12.8714C127.071 13.1215 126.479 13.2466 125.804 13.2466ZM135.171 13.2466C134.313 13.2466 133.575 13.0441 132.956 12.6392C132.337 12.2343 131.86 11.6766 131.527 10.966C131.193 10.2554 131.027 9.44361 131.027 8.53058C131.027 7.60167 131.197 6.78192 131.539 6.07135C131.884 5.3568 132.364 4.79906 132.98 4.39812C133.599 3.99321 134.321 3.79076 135.147 3.79076C135.79 3.79076 136.37 3.90985 136.886 4.14803C137.402 4.38621 137.825 4.71967 138.154 5.14839C138.484 5.57712 138.688 6.0773 138.767 6.64894H137.362C137.255 6.23212 137.017 5.86294 136.648 5.54139C136.282 5.21588 135.79 5.05312 135.171 5.05312C134.623 5.05312 134.143 5.19603 133.73 5.48185C133.321 5.7637 133.002 6.16265 132.771 6.67871C132.545 7.1908 132.432 7.79221 132.432 8.48294C132.432 9.18955 132.543 9.80485 132.765 10.3288C132.992 10.8528 133.309 11.2597 133.718 11.5495C134.131 11.8393 134.615 11.9842 135.171 11.9842C135.536 11.9842 135.868 11.9207 136.165 11.7937C136.463 11.6666 136.715 11.484 136.922 11.2458C137.128 11.0077 137.275 10.7218 137.362 10.3884H138.767C138.688 10.9283 138.492 11.4146 138.178 11.8473C137.868 12.276 137.457 12.6174 136.945 12.8714C136.437 13.1215 135.846 13.2466 135.171 13.2466ZM144.537 13.2466C143.712 13.2466 142.987 13.0501 142.364 12.6571C141.745 12.2641 141.26 11.7143 140.911 11.0077C140.566 10.3011 140.393 9.47536 140.393 8.53058C140.393 7.57785 140.566 6.7462 140.911 6.03562C141.26 5.32505 141.745 4.77326 142.364 4.38026C142.987 3.98726 143.712 3.79076 144.537 3.79076C145.363 3.79076 146.086 3.98726 146.705 4.38026C147.328 4.77326 147.812 5.32505 148.158 6.03562C148.507 6.7462 148.682 7.57785 148.682 8.53058C148.682 9.47536 148.507 10.3011 148.158 11.0077C147.812 11.7143 147.328 12.2641 146.705 12.6571C146.086 13.0501 145.363 13.2466 144.537 13.2466ZM144.537 11.9842C145.165 11.9842 145.681 11.8234 146.086 11.5019C146.491 11.1803 146.79 10.7576 146.985 10.2336C147.179 9.70958 147.277 9.14191 147.277 8.53058C147.277 7.91924 147.179 7.34959 146.985 6.82162C146.79 6.29365 146.491 5.86691 146.086 5.54139C145.681 5.21588 145.165 5.05312 144.537 5.05312C143.91 5.05312 143.394 5.21588 142.989 5.54139C142.584 5.86691 142.285 6.29365 142.09 6.82162C141.896 7.34959 141.798 7.91924 141.798 8.53058C141.798 9.14191 141.896 9.70958 142.09 10.2336C142.285 10.7576 142.584 11.1803 142.989 11.5019C143.394 11.8234 143.91 11.9842 144.537 11.9842ZM156.591 9.31658V3.90985H157.996V13.056H156.591V11.5078H156.496C156.281 11.9723 155.948 12.3673 155.495 12.6928C155.043 13.0143 154.471 13.1751 153.78 13.1751C153.209 13.1751 152.701 13.0501 152.256 12.8C151.811 12.5459 151.462 12.1648 151.208 11.6567C150.954 11.1446 150.827 10.4995 150.827 9.72148V3.90985H152.232V9.62621C152.232 10.2931 152.419 10.8251 152.792 11.222C153.169 11.619 153.649 11.8175 154.233 11.8175C154.582 11.8175 154.938 11.7282 155.299 11.5495C155.664 11.3709 155.97 11.097 156.216 10.7278C156.466 10.3586 156.591 9.88821 156.591 9.31658ZM161.975 7.55403V13.056H160.57V3.90985H161.928V5.33894H162.047C162.261 4.87449 162.587 4.50133 163.023 4.21949C163.46 3.93367 164.024 3.79076 164.714 3.79076C165.334 3.79076 165.876 3.91779 166.34 4.17185C166.804 4.42194 167.166 4.80303 167.424 5.31512C167.682 5.82324 167.811 6.46633 167.811 7.24439V13.056H166.406V7.33967C166.406 6.62115 166.219 6.06142 165.846 5.66048C165.473 5.25558 164.961 5.05312 164.31 5.05312C163.861 5.05312 163.46 5.15038 163.107 5.34489C162.757 5.53941 162.481 5.82324 162.279 6.19639C162.077 6.56955 161.975 7.02209 161.975 7.55403ZM174.356 3.90985V5.10076H169.616V3.90985H174.356ZM170.998 1.71858H172.403V10.436C172.403 10.833 172.461 11.1307 172.576 11.3292C172.695 11.5237 172.846 11.6547 173.028 11.7222C173.215 11.7857 173.412 11.8175 173.618 11.8175C173.773 11.8175 173.9 11.8095 173.999 11.7937C174.098 11.7738 174.178 11.7579 174.237 11.746L174.523 13.0084C174.428 13.0441 174.295 13.0798 174.124 13.1156C173.953 13.1553 173.737 13.1751 173.475 13.1751C173.078 13.1751 172.689 13.0898 172.308 12.9191C171.931 12.7484 171.617 12.4884 171.367 12.139C171.121 11.7897 170.998 11.3491 170.998 10.8171V1.71858ZM178.304 9.62621V9.55476C178.312 8.79655 178.392 8.19315 178.542 7.74458C178.693 7.296 178.908 6.93277 179.185 6.65489C179.463 6.37702 179.797 6.12097 180.186 5.88676C180.42 5.74385 180.63 5.57514 180.817 5.38062C181.004 5.18214 181.15 4.95388 181.258 4.69585C181.369 4.43782 181.424 4.152 181.424 3.83839C181.424 3.44936 181.333 3.11194 181.15 2.82612C180.968 2.5403 180.724 2.31998 180.418 2.16517C180.112 2.01035 179.773 1.93294 179.4 1.93294C179.074 1.93294 178.761 2.00042 178.459 2.13539C178.157 2.27036 177.905 2.48274 177.703 2.77253C177.5 3.06232 177.383 3.44142 177.351 3.90985H175.851C175.883 3.235 176.057 2.65741 176.375 2.17708C176.696 1.69674 177.119 1.32955 177.643 1.07548C178.171 0.821424 178.757 0.694394 179.4 0.694394C180.098 0.694394 180.706 0.833333 181.222 1.11121C181.742 1.38909 182.143 1.77018 182.425 2.25448C182.711 2.73879 182.853 3.29058 182.853 3.90985C182.853 4.34652 182.786 4.7415 182.651 5.0948C182.52 5.44811 182.329 5.7637 182.079 6.04158C181.833 6.31945 181.536 6.56558 181.186 6.77994C180.837 6.99827 180.557 7.22852 180.347 7.47067C180.136 7.70885 179.983 7.99268 179.888 8.32217C179.793 8.65165 179.741 9.06252 179.733 9.55476V9.62621H178.304ZM179.066 13.1513C178.773 13.1513 178.521 13.0461 178.31 12.8357C178.1 12.6253 177.995 12.3732 177.995 12.0795C177.995 11.7857 178.1 11.5337 178.31 11.3233C178.521 11.1129 178.773 11.0077 179.066 11.0077C179.36 11.0077 179.612 11.1129 179.823 11.3233C180.033 11.5337 180.138 11.7857 180.138 12.0795C180.138 12.274 180.089 12.4526 179.989 12.6154C179.894 12.7782 179.765 12.9092 179.602 13.0084C179.443 13.1037 179.265 13.1513 179.066 13.1513Z" fill="#A4A5B4"/>
<path d="M196.074 4.36835C196.026 3.88802 195.822 3.51486 195.461 3.24889C195.099 2.98292 194.609 2.84994 193.99 2.84994C193.569 2.84994 193.214 2.90948 192.924 3.02858C192.634 3.1437 192.412 3.30447 192.257 3.51089C192.106 3.71732 192.031 3.95153 192.031 4.21353C192.023 4.43186 192.069 4.62241 192.168 4.78517C192.271 4.94792 192.412 5.08885 192.591 5.20794C192.769 5.32306 192.976 5.42429 193.21 5.51162C193.444 5.59498 193.694 5.66644 193.96 5.72598L195.056 5.98798C195.588 6.10708 196.076 6.26586 196.521 6.46435C196.965 6.66283 197.35 6.90697 197.676 7.19676C198.001 7.48655 198.253 7.82794 198.432 8.22094C198.615 8.61394 198.708 9.0645 198.712 9.57262C198.708 10.3189 198.517 10.966 198.14 11.5138C197.767 12.0577 197.227 12.4804 196.521 12.7821C195.818 13.0798 194.97 13.2287 193.978 13.2287C192.994 13.2287 192.136 13.0779 191.406 12.7762C190.679 12.4745 190.112 12.0279 189.703 11.4364C189.298 10.8409 189.085 10.1046 189.066 9.22726H191.56C191.588 9.63614 191.705 9.97753 191.912 10.2514C192.122 10.5214 192.402 10.7258 192.751 10.8648C193.105 10.9997 193.504 11.0672 193.948 11.0672C194.385 11.0672 194.764 11.0037 195.086 10.8767C195.411 10.7496 195.663 10.573 195.842 10.3467C196.02 10.1204 196.11 9.86042 196.11 9.56667C196.11 9.29276 196.028 9.06252 195.866 8.87594C195.707 8.68936 195.473 8.53058 195.163 8.39958C194.857 8.26858 194.482 8.14948 194.038 8.0423L192.71 7.70885C191.682 7.45876 190.87 7.06774 190.274 6.5358C189.679 6.00386 189.383 5.28733 189.387 4.38621C189.383 3.64785 189.58 3.00277 189.977 2.45099C190.378 1.8992 190.927 1.46848 191.626 1.15885C192.325 0.849212 193.119 0.694394 194.008 0.694394C194.913 0.694394 195.703 0.849212 196.378 1.15885C197.057 1.46848 197.584 1.8992 197.962 2.45099C198.339 3.00277 198.533 3.64189 198.545 4.36835H196.074ZM203.024 0.861121V13.056H200.446V0.861121H203.024ZM213.232 4.80303C213.149 4.51324 213.032 4.2572 212.881 4.03489C212.73 3.80862 212.545 3.61808 212.327 3.46326C212.113 3.30447 211.866 3.18339 211.589 3.10003C211.315 3.01667 211.011 2.97499 210.678 2.97499C210.054 2.97499 209.506 3.1298 209.034 3.43944C208.566 3.74908 208.2 4.19964 207.938 4.79112C207.676 5.37864 207.545 6.09715 207.545 6.94667C207.545 7.79618 207.674 8.51867 207.933 9.11412C208.191 9.70958 208.556 10.1641 209.028 10.4777C209.501 10.7873 210.058 10.9422 210.701 10.9422C211.285 10.9422 211.783 10.839 212.196 10.6325C212.613 10.4221 212.93 10.1264 213.149 9.7453C213.371 9.36421 213.482 8.91365 213.482 8.39362L214.006 8.47103H210.862V6.52985H215.965V8.06612C215.965 9.13794 215.739 10.0589 215.286 10.829C214.834 11.5952 214.211 12.1867 213.417 12.6035C212.623 13.0163 211.714 13.2228 210.689 13.2228C209.546 13.2228 208.542 12.9707 207.676 12.4665C206.811 11.9584 206.136 11.2379 205.652 10.305C205.172 9.36818 204.931 8.25667 204.931 6.97048C204.931 5.98203 205.074 5.10076 205.36 4.32667C205.65 3.54861 206.055 2.88964 206.575 2.34976C207.095 1.80988 207.7 1.39901 208.391 1.11717C209.082 0.835318 209.83 0.694394 210.636 0.694394C211.327 0.694394 211.97 0.795621 212.565 0.998076C213.161 1.19656 213.689 1.47841 214.149 1.84362C214.614 2.20883 214.993 2.64351 215.286 3.14767C215.58 3.64785 215.769 4.19964 215.852 4.80303H213.232ZM228.102 0.861121V13.056H225.875L220.57 5.38062H220.48V13.056H217.902V0.861121H220.165L225.428 8.53058H225.536V0.861121H228.102ZM241.646 0.861121H244.224V8.78067C244.224 9.66988 244.012 10.4479 243.587 11.1148C243.166 11.7818 242.577 12.3018 241.818 12.6749C241.06 13.0441 240.177 13.2287 239.169 13.2287C238.156 13.2287 237.271 13.0441 236.513 12.6749C235.755 12.3018 235.165 11.7818 234.744 11.1148C234.324 10.4479 234.113 9.66988 234.113 8.78067V0.861121H236.691V8.56035C236.691 9.0248 236.793 9.43765 236.995 9.79889C237.202 10.1601 237.491 10.444 237.865 10.6504C238.238 10.8568 238.672 10.96 239.169 10.96C239.669 10.96 240.103 10.8568 240.473 10.6504C240.846 10.444 241.134 10.1601 241.336 9.79889C241.542 9.43765 241.646 9.0248 241.646 8.56035V0.861121ZM246.345 13.056V0.861121H251.157C252.081 0.861121 252.869 1.03777 253.521 1.39108C254.172 1.74041 254.668 2.2267 255.009 2.84994C255.355 3.46921 255.527 4.18376 255.527 4.99358C255.527 5.80339 255.353 6.51794 255.003 7.13721C254.654 7.75648 254.148 8.2388 253.485 8.58417C252.826 8.92953 252.028 9.10221 251.091 9.10221H248.024V7.03598H250.674C251.17 7.03598 251.579 6.95064 251.901 6.77994C252.226 6.60527 252.469 6.36511 252.627 6.05944C252.79 5.7498 252.871 5.39452 252.871 4.99358C252.871 4.58867 252.79 4.23536 252.627 3.93367C252.469 3.628 252.226 3.3918 251.901 3.22508C251.575 3.05438 251.163 2.96903 250.662 2.96903H248.924V13.056H246.345Z" fill="#068992"/>
</svg>
