<svg width="26" height="26" viewBox="0 0 26 26" fill="none" xmlns="http://www.w3.org/2000/svg">
<path d="M21.4993 20.8917L5.77925 5.17169M10.8097 11.3985C10.4183 11.8299 10.1809 12.3966 10.1809 13.0173C10.1809 14.369 11.3069 15.4648 12.6961 15.4648C13.3365 15.4648 13.9211 15.2319 14.3652 14.8483M21.5399 15.4648C22.4058 14.1686 22.7569 13.1115 22.7569 13.1115C22.7569 13.1115 20.4674 5.80049 12.6961 5.80049C12.2598 5.80049 11.8408 5.82353 11.4385 5.86703M18.3553 18.6379C16.9117 19.5588 15.0534 20.21 12.6961 20.1714C5.02147 20.0459 2.63525 13.1115 2.63525 13.1115C2.63525 13.1115 3.74389 9.57128 7.03685 7.41789" stroke="#32343D" stroke-width="1.572" stroke-linecap="round"/>
</svg>
