<svg width="147" height="17" viewBox="0 0 147 17" fill="none" xmlns="http://www.w3.org/2000/svg">
<path d="M0.978877 13.1396V0.944739H9.05324V3.07051H3.5572V5.97633H8.51733V8.1021H3.5572V13.1396H0.978877ZM14.2009 13.3183C13.276 13.3183 12.4761 13.1218 11.8013 12.7288C11.1304 12.3318 10.6123 11.78 10.2471 11.0734C9.88192 10.3628 9.69931 9.53913 9.69931 8.60228C9.69931 7.6575 9.88192 6.8318 10.2471 6.12519C10.6123 5.41462 11.1304 4.86283 11.8013 4.46983C12.4761 4.07286 13.276 3.87438 14.2009 3.87438C15.1259 3.87438 15.9238 4.07286 16.5947 4.46983C17.2695 4.86283 17.7896 5.41462 18.1548 6.12519C18.52 6.8318 18.7026 7.6575 18.7026 8.60228C18.7026 9.53913 18.52 10.3628 18.1548 11.0734C17.7896 11.78 17.2695 12.3318 16.5947 12.7288C15.9238 13.1218 15.1259 13.3183 14.2009 13.3183ZM14.2129 11.3533C14.6336 11.3533 14.985 11.2342 15.2668 10.996C15.5487 10.7539 15.761 10.4244 15.9039 10.0076C16.0508 9.59074 16.1243 9.11636 16.1243 8.58442C16.1243 8.05248 16.0508 7.5781 15.9039 7.16128C15.761 6.74447 15.5487 6.41498 15.2668 6.17283C14.985 5.93068 14.6336 5.8096 14.2129 5.8096C13.7881 5.8096 13.4308 5.93068 13.141 6.17283C12.8552 6.41498 12.6389 6.74447 12.492 7.16128C12.3491 7.5781 12.2776 8.05248 12.2776 8.58442C12.2776 9.11636 12.3491 9.59074 12.492 10.0076C12.6389 10.4244 12.8552 10.7539 13.141 10.996C13.4308 11.2342 13.7881 11.3533 14.2129 11.3533ZM20.352 13.1396V3.99347H22.8112V5.58928H22.9065C23.0732 5.02162 23.3531 4.59289 23.7461 4.3031C24.1391 4.00935 24.5916 3.86247 25.1037 3.86247C25.2308 3.86247 25.3677 3.87041 25.5146 3.88628C25.6615 3.90216 25.7905 3.924 25.9016 3.95178V6.2026C25.7825 6.16688 25.6178 6.13512 25.4074 6.10733C25.197 6.07954 25.0045 6.06565 24.8298 6.06565C24.4567 6.06565 24.1232 6.14703 23.8294 6.30978C23.5397 6.46857 23.3094 6.69088 23.1387 6.97669C22.972 7.26251 22.8886 7.592 22.8886 7.96515V13.1396H20.352ZM30.9079 16.76C30.0862 16.76 29.3816 16.6469 28.794 16.4206C28.2105 16.1983 27.746 15.8946 27.4007 15.5096C27.0553 15.1245 26.831 14.6918 26.7278 14.2115L29.0739 13.8959C29.1454 14.0785 29.2585 14.2492 29.4133 14.408C29.5681 14.5668 29.7726 14.6938 30.0266 14.7891C30.2847 14.8883 30.5983 14.9379 30.9675 14.9379C31.5192 14.9379 31.9738 14.803 32.331 14.533C32.6923 14.267 32.8729 13.8205 32.8729 13.1932V11.52H32.7657C32.6546 11.7741 32.4879 12.0142 32.2655 12.2405C32.0432 12.4668 31.7574 12.6514 31.4081 12.7943C31.0588 12.9372 30.6419 13.0086 30.1576 13.0086C29.4709 13.0086 28.8457 12.8499 28.282 12.5323C27.7222 12.2107 27.2756 11.7205 26.9422 11.0615C26.6127 10.3986 26.448 9.56097 26.448 8.54869C26.448 7.5126 26.6167 6.64721 26.9541 5.95251C27.2915 5.25781 27.7401 4.73778 28.2998 4.39242C28.8635 4.04706 29.4808 3.87438 30.1517 3.87438C30.6638 3.87438 31.0925 3.96171 31.4379 4.13638C31.7832 4.30707 32.0611 4.52144 32.2715 4.77947C32.4859 5.03353 32.6506 5.28362 32.7657 5.52974H32.861V3.99347H35.3798V13.229C35.3798 14.007 35.1892 14.6581 34.8081 15.1821C34.427 15.7061 33.8991 16.0991 33.2242 16.3611C32.5534 16.627 31.7812 16.76 30.9079 16.76ZM30.9615 11.1032C31.3704 11.1032 31.7157 11.002 31.9976 10.7995C32.2834 10.5931 32.5017 10.2993 32.6526 9.91824C32.8074 9.53318 32.8848 9.07269 32.8848 8.53678C32.8848 8.00088 32.8094 7.53642 32.6585 7.14342C32.5077 6.74645 32.2894 6.4388 32.0035 6.22047C31.7177 6.00213 31.3704 5.89297 30.9615 5.89297C30.5447 5.89297 30.1934 6.0061 29.9075 6.23238C29.6217 6.45468 29.4054 6.76432 29.2585 7.16128C29.1116 7.55825 29.0382 8.01675 29.0382 8.53678C29.0382 9.06475 29.1116 9.52127 29.2585 9.90633C29.4094 10.2874 29.6257 10.5832 29.9075 10.7936C30.1934 11 30.5447 11.1032 30.9615 11.1032ZM41.5308 13.3183C40.6059 13.3183 39.806 13.1218 39.1311 12.7288C38.4603 12.3318 37.9422 11.78 37.577 11.0734C37.2118 10.3628 37.0292 9.53913 37.0292 8.60228C37.0292 7.6575 37.2118 6.8318 37.577 6.12519C37.9422 5.41462 38.4603 4.86283 39.1311 4.46983C39.806 4.07286 40.6059 3.87438 41.5308 3.87438C42.4558 3.87438 43.2537 4.07286 43.9245 4.46983C44.5994 4.86283 45.1194 5.41462 45.4846 6.12519C45.8499 6.8318 46.0325 7.6575 46.0325 8.60228C46.0325 9.53913 45.8499 10.3628 45.4846 11.0734C45.1194 11.78 44.5994 12.3318 43.9245 12.7288C43.2537 13.1218 42.4558 13.3183 41.5308 13.3183ZM41.5427 11.3533C41.9635 11.3533 42.3148 11.2342 42.5967 10.996C42.8785 10.7539 43.0909 10.4244 43.2338 10.0076C43.3807 9.59074 43.4541 9.11636 43.4541 8.58442C43.4541 8.05248 43.3807 7.5781 43.2338 7.16128C43.0909 6.74447 42.8785 6.41498 42.5967 6.17283C42.3148 5.93068 41.9635 5.8096 41.5427 5.8096C41.118 5.8096 40.7607 5.93068 40.4709 6.17283C40.1851 6.41498 39.9687 6.74447 39.8219 7.16128C39.679 7.5781 39.6075 8.05248 39.6075 8.58442C39.6075 9.11636 39.679 9.59074 39.8219 10.0076C39.9687 10.4244 40.1851 10.7539 40.4709 10.996C40.7607 11.2342 41.118 11.3533 41.5427 11.3533ZM52.5467 3.99347V5.89892H47.0388V3.99347H52.5467ZM48.2892 1.80219H50.8259V10.3291C50.8259 10.5633 50.8616 10.7459 50.933 10.8769C51.0045 11.004 51.1037 11.0933 51.2308 11.1449C51.3618 11.1965 51.5126 11.2223 51.6833 11.2223C51.8024 11.2223 51.9215 11.2124 52.0406 11.1925C52.1597 11.1687 52.251 11.1508 52.3145 11.1389L52.7134 13.0265C52.5864 13.0662 52.4078 13.1119 52.1775 13.1635C51.9473 13.219 51.6674 13.2528 51.3379 13.2647C50.7266 13.2885 50.1907 13.2071 49.7302 13.0206C49.2737 12.834 48.9184 12.5442 48.6644 12.1512C48.4103 11.7582 48.2853 11.262 48.2892 10.6626V1.80219ZM58.08 16.5695V3.99347H60.5809V5.52974H60.694C60.8052 5.28362 60.966 5.03353 61.1764 4.77947C61.3907 4.52144 61.6686 4.30707 62.01 4.13638C62.3554 3.96171 62.7841 3.87438 63.2962 3.87438C63.9631 3.87438 64.5784 4.04904 65.1421 4.39838C65.7058 4.74374 66.1563 5.26575 66.4938 5.96442C66.8312 6.65912 66.9999 7.53047 66.9999 8.57847C66.9999 9.59868 66.8352 10.4601 66.5057 11.1627C66.1802 11.8614 65.7356 12.3914 65.1719 12.7526C64.6121 13.1099 63.9849 13.2885 63.2902 13.2885C62.798 13.2885 62.3792 13.2071 62.0338 13.0444C61.6924 12.8816 61.4126 12.6772 61.1942 12.4311C60.9759 12.181 60.8092 11.9289 60.694 11.6748H60.6166V16.5695H58.08ZM60.563 8.56656C60.563 9.11041 60.6385 9.58478 60.7893 9.98969C60.9402 10.3946 61.1585 10.7102 61.4443 10.9365C61.7301 11.1588 62.0775 11.2699 62.4864 11.2699C62.8992 11.2699 63.2485 11.1568 63.5344 10.9305C63.8202 10.7003 64.0365 10.3827 64.1834 9.97778C64.3342 9.56891 64.4097 9.0985 64.4097 8.56656C64.4097 8.03859 64.3362 7.57413 64.1894 7.17319C64.0425 6.77225 63.8261 6.45865 63.5403 6.23238C63.2545 6.0061 62.9032 5.89297 62.4864 5.89297C62.0735 5.89297 61.7242 6.00213 61.4384 6.22047C61.1565 6.4388 60.9402 6.74844 60.7893 7.14938C60.6385 7.55032 60.563 8.02271 60.563 8.56656ZM71.2991 13.3123C70.7155 13.3123 70.1955 13.2111 69.739 13.0086C69.2825 12.8022 68.9212 12.4985 68.6553 12.0976C68.3933 11.6927 68.2623 11.1885 68.2623 10.5851C68.2623 10.077 68.3555 9.65028 68.5421 9.30492C68.7287 8.95956 68.9828 8.68168 69.3043 8.47128C69.6258 8.26089 69.9911 8.1021 70.3999 7.99492C70.8128 7.88774 71.2455 7.81232 71.698 7.76865C72.23 7.71307 72.6587 7.66147 72.9842 7.61383C73.3097 7.56222 73.5459 7.4868 73.6928 7.38756C73.8397 7.28832 73.9131 7.14144 73.9131 6.94692V6.91119C73.9131 6.53407 73.794 6.2423 73.5558 6.03588C73.3216 5.82945 72.9882 5.72624 72.5555 5.72624C72.099 5.72624 71.7357 5.82747 71.4658 6.02992C71.1959 6.22841 71.0172 6.4785 70.9299 6.78019L68.5838 6.58965C68.7029 6.03389 68.9371 5.55356 69.2864 5.14865C69.6358 4.73977 70.0863 4.42616 70.6381 4.20783C71.1939 3.98553 71.837 3.87438 72.5674 3.87438C73.0755 3.87438 73.5618 3.93392 74.0263 4.05301C74.4947 4.1721 74.9095 4.35669 75.2708 4.60678C75.636 4.85688 75.9238 5.17842 76.1342 5.57142C76.3446 5.96045 76.4498 6.42689 76.4498 6.97074V13.1396H74.0441V11.8713H73.9727C73.8258 12.1571 73.6293 12.4092 73.3832 12.6276C73.137 12.8419 72.8413 13.0106 72.4959 13.1337C72.1506 13.2528 71.7516 13.3123 71.2991 13.3123ZM72.0255 11.5617C72.3987 11.5617 72.7282 11.4883 73.014 11.3414C73.2998 11.1905 73.5241 10.9881 73.6868 10.734C73.8496 10.48 73.931 10.1921 73.931 9.8706V8.90001C73.8516 8.95162 73.7424 8.99925 73.6035 9.04292C73.4685 9.08262 73.3157 9.12033 73.145 9.15606C72.9743 9.18782 72.8036 9.21759 72.6329 9.24538C72.4622 9.26919 72.3074 9.29103 72.1684 9.31088C71.8707 9.35454 71.6107 9.42401 71.3884 9.51928C71.1661 9.61456 70.9934 9.74357 70.8703 9.90633C70.7473 10.0651 70.6858 10.2636 70.6858 10.5018C70.6858 10.8471 70.8108 11.1111 71.0609 11.2937C71.315 11.4724 71.6365 11.5617 72.0255 11.5617ZM86.0276 6.60156L83.7054 6.74447C83.6657 6.54598 83.5803 6.36735 83.4493 6.20856C83.3183 6.0458 83.1456 5.91678 82.9313 5.82151C82.7209 5.72227 82.4688 5.67265 82.175 5.67265C81.782 5.67265 81.4506 5.75601 81.1806 5.92274C80.9107 6.0855 80.7757 6.30383 80.7757 6.57774C80.7757 6.79607 80.8631 6.98066 81.0377 7.13151C81.2124 7.28236 81.5121 7.40344 81.9369 7.49474L83.5922 7.82819C84.4814 8.0108 85.1444 8.30456 85.581 8.70947C86.0177 9.11438 86.236 9.64632 86.236 10.3053C86.236 10.9047 86.0594 11.4307 85.7061 11.8832C85.3568 12.3358 84.8764 12.6891 84.2651 12.9431C83.6577 13.1932 82.9571 13.3183 82.1631 13.3183C80.9524 13.3183 79.9877 13.0662 79.2692 12.5621C78.5547 12.0539 78.1359 11.3632 78.0128 10.4899L80.5078 10.3589C80.5832 10.7281 80.7658 11.0099 81.0556 11.2044C81.3454 11.395 81.7165 11.4902 82.1691 11.4902C82.6137 11.4902 82.971 11.4049 83.2409 11.2342C83.5148 11.0595 83.6538 10.8352 83.6577 10.5613C83.6538 10.3311 83.5565 10.1425 83.366 9.99565C83.1754 9.8448 82.8817 9.72968 82.4847 9.65028L80.9008 9.33469C80.0076 9.15606 79.3427 8.84642 78.906 8.40578C78.4733 7.96515 78.257 7.40344 78.257 6.72065C78.257 6.13313 78.4157 5.627 78.7333 5.20224C79.0549 4.77748 79.5054 4.44998 80.085 4.21974C80.6685 3.9895 81.3513 3.87438 82.1334 3.87438C83.2885 3.87438 84.1976 4.11851 84.8605 4.60678C85.5275 5.09506 85.9165 5.75998 86.0276 6.60156ZM95.4433 6.60156L93.121 6.74447C93.0813 6.54598 92.996 6.36735 92.865 6.20856C92.734 6.0458 92.5613 5.91678 92.3469 5.82151C92.1365 5.72227 91.8844 5.67265 91.5907 5.67265C91.1977 5.67265 90.8662 5.75601 90.5963 5.92274C90.3263 6.0855 90.1914 6.30383 90.1914 6.57774C90.1914 6.79607 90.2787 6.98066 90.4534 7.13151C90.628 7.28236 90.9277 7.40344 91.3525 7.49474L93.0079 7.82819C93.8971 8.0108 94.56 8.30456 94.9967 8.70947C95.4333 9.11438 95.6517 9.64632 95.6517 10.3053C95.6517 10.9047 95.475 11.4307 95.1217 11.8832C94.7724 12.3358 94.2921 12.6891 93.6807 12.9431C93.0734 13.1932 92.3727 13.3183 91.5788 13.3183C90.368 13.3183 89.4034 13.0662 88.6849 12.5621C87.9703 12.0539 87.5515 11.3632 87.4285 10.4899L89.9234 10.3589C89.9988 10.7281 90.1814 11.0099 90.4712 11.2044C90.761 11.395 91.1322 11.4902 91.5847 11.4902C92.0293 11.4902 92.3866 11.4049 92.6565 11.2342C92.9305 11.0595 93.0694 10.8352 93.0734 10.5613C93.0694 10.3311 92.9721 10.1425 92.7816 9.99565C92.591 9.8448 92.2973 9.72968 91.9003 9.65028L90.3164 9.33469C89.4232 9.15606 88.7583 8.84642 88.3216 8.40578C87.8889 7.96515 87.6726 7.40344 87.6726 6.72065C87.6726 6.13313 87.8314 5.627 88.149 5.20224C88.4705 4.77748 88.9211 4.44998 89.5006 4.21974C90.0842 3.9895 90.767 3.87438 91.549 3.87438C92.7042 3.87438 93.6132 4.11851 94.2762 4.60678C94.9431 5.09506 95.3321 5.75998 95.4433 6.60156ZM99.0532 13.1396L96.5642 3.99347H99.1306L100.548 10.1386H100.631L102.108 3.99347H104.627L106.127 10.1028H106.205L107.598 3.99347H110.158L107.675 13.1396H104.99L103.418 7.38756H103.305L101.733 13.1396H99.0532ZM115.415 13.3183C114.49 13.3183 113.69 13.1218 113.015 12.7288C112.344 12.3318 111.826 11.78 111.461 11.0734C111.096 10.3628 110.913 9.53913 110.913 8.60228C110.913 7.6575 111.096 6.8318 111.461 6.12519C111.826 5.41462 112.344 4.86283 113.015 4.46983C113.69 4.07286 114.49 3.87438 115.415 3.87438C116.34 3.87438 117.138 4.07286 117.809 4.46983C118.483 4.86283 119.003 5.41462 119.369 6.12519C119.734 6.8318 119.916 7.6575 119.916 8.60228C119.916 9.53913 119.734 10.3628 119.369 11.0734C119.003 11.78 118.483 12.3318 117.809 12.7288C117.138 13.1218 116.34 13.3183 115.415 13.3183ZM115.427 11.3533C115.848 11.3533 116.199 11.2342 116.481 10.996C116.763 10.7539 116.975 10.4244 117.118 10.0076C117.265 9.59074 117.338 9.11636 117.338 8.58442C117.338 8.05248 117.265 7.5781 117.118 7.16128C116.975 6.74447 116.763 6.41498 116.481 6.17283C116.199 5.93068 115.848 5.8096 115.427 5.8096C115.002 5.8096 114.645 5.93068 114.355 6.17283C114.069 6.41498 113.853 6.74447 113.706 7.16128C113.563 7.5781 113.491 8.05248 113.491 8.58442C113.491 9.11636 113.563 9.59074 113.706 10.0076C113.853 10.4244 114.069 10.7539 114.355 10.996C114.645 11.2342 115.002 11.3533 115.427 11.3533ZM121.566 13.1396V3.99347H124.025V5.58928H124.12C124.287 5.02162 124.567 4.59289 124.96 4.3031C125.353 4.00935 125.805 3.86247 126.318 3.86247C126.445 3.86247 126.582 3.87041 126.728 3.88628C126.875 3.90216 127.004 3.924 127.115 3.95178V6.2026C126.996 6.16688 126.832 6.13512 126.621 6.10733C126.411 6.07954 126.218 6.06565 126.044 6.06565C125.671 6.06565 125.337 6.14703 125.043 6.30978C124.754 6.46857 124.523 6.69088 124.353 6.97669C124.186 7.26251 124.102 7.592 124.102 7.96515V13.1396H121.566ZM131.372 13.2885C130.677 13.2885 130.048 13.1099 129.484 12.7526C128.924 12.3914 128.48 11.8614 128.15 11.1627C127.825 10.4601 127.662 9.59868 127.662 8.57847C127.662 7.53047 127.831 6.65912 128.168 5.96442C128.505 5.26575 128.954 4.74374 129.514 4.39838C130.077 4.04904 130.695 3.87438 131.366 3.87438C131.878 3.87438 132.304 3.96171 132.646 4.13638C132.991 4.30707 133.269 4.52144 133.479 4.77947C133.694 5.03353 133.857 5.28362 133.968 5.52974H134.045V0.944739H136.576V13.1396H134.075V11.6748H133.968C133.849 11.9289 133.68 12.181 133.462 12.4311C133.247 12.6772 132.967 12.8816 132.622 13.0444C132.281 13.2071 131.864 13.2885 131.372 13.2885ZM132.175 11.2699C132.584 11.2699 132.93 11.1588 133.211 10.9365C133.497 10.7102 133.716 10.3946 133.866 9.98969C134.021 9.58478 134.099 9.11041 134.099 8.56656C134.099 8.02271 134.023 7.55032 133.872 7.14938C133.722 6.74844 133.503 6.4388 133.217 6.22047C132.932 6.00213 132.584 5.89297 132.175 5.89297C131.759 5.89297 131.407 6.0061 131.121 6.23238C130.836 6.45865 130.619 6.77225 130.472 7.17319C130.325 7.57413 130.252 8.03859 130.252 8.56656C130.252 9.0985 130.325 9.56891 130.472 9.97778C130.623 10.3827 130.84 10.7003 131.121 10.9305C131.407 11.1568 131.759 11.2699 132.175 11.2699ZM140.841 9.48356V9.2811C140.845 8.58641 140.906 8.03263 141.025 7.61978C141.148 7.20694 141.327 6.87348 141.561 6.61942C141.795 6.36536 142.077 6.13512 142.407 5.92869C142.653 5.76991 142.873 5.60516 143.068 5.43447C143.262 5.26377 143.417 5.07521 143.532 4.86878C143.647 4.65839 143.705 4.42418 143.705 4.16615C143.705 3.89224 143.639 3.65207 143.508 3.44565C143.377 3.23922 143.201 3.08044 142.978 2.96928C142.76 2.85813 142.518 2.80256 142.252 2.80256C141.994 2.80256 141.75 2.86012 141.52 2.97524C141.289 3.08639 141.101 3.25312 140.954 3.47542C140.807 3.69375 140.728 3.96568 140.716 4.29119H138.286C138.306 3.49725 138.497 2.84225 138.858 2.32619C139.219 1.80616 139.697 1.41912 140.293 1.16506C140.888 0.907027 141.545 0.778012 142.264 0.778012C143.054 0.778012 143.752 0.909012 144.36 1.17101C144.967 1.42904 145.444 1.80418 145.789 2.29642C146.134 2.78866 146.307 3.38213 146.307 4.07683C146.307 4.54128 146.23 4.95413 146.075 5.31538C145.924 5.67265 145.712 5.99022 145.438 6.2681C145.164 6.54201 144.84 6.79012 144.467 7.01242C144.153 7.199 143.895 7.39351 143.693 7.59597C143.494 7.79842 143.346 8.03263 143.246 8.2986C143.151 8.56457 143.101 8.89207 143.097 9.2811V9.48356H140.841ZM142.02 13.2945C141.623 13.2945 141.283 13.1555 141.001 12.8776C140.724 12.5958 140.587 12.2584 140.591 11.8654C140.587 11.4763 140.724 11.1429 141.001 10.865C141.283 10.5871 141.623 10.4482 142.02 10.4482C142.397 10.4482 142.728 10.5871 143.014 10.865C143.3 11.1429 143.445 11.4763 143.449 11.8654C143.445 12.1274 143.375 12.3675 143.24 12.5859C143.109 12.8002 142.937 12.9729 142.722 13.1039C142.508 13.231 142.274 13.2945 142.02 13.2945Z" fill="#068992"/>
</svg>
