<svg width="347" height="53" viewBox="0 0 347 53" fill="none" xmlns="http://www.w3.org/2000/svg">
<rect x="0.0566406" y="0.447266" width="346.888" height="52.152" rx="21.0229" fill="#068992"/>
<path d="M124.638 24.7704C124.554 24.4806 124.437 24.2246 124.286 24.0023C124.136 23.776 123.951 23.5855 123.733 23.4307C123.518 23.2719 123.272 23.1508 122.994 23.0674C122.72 22.9841 122.417 22.9424 122.083 22.9424C121.46 22.9424 120.912 23.0972 120.44 23.4068C119.971 23.7165 119.606 24.167 119.344 24.7585C119.082 25.346 118.951 26.0646 118.951 26.9141C118.951 27.7636 119.08 28.4861 119.338 29.0815C119.596 29.677 119.961 30.1315 120.434 30.4451C120.906 30.7548 121.464 30.9096 122.107 30.9096C122.691 30.9096 123.189 30.8064 123.602 30.5999C124.018 30.3895 124.336 30.0938 124.554 29.7127C124.777 29.3316 124.888 28.8811 124.888 28.361L125.412 28.4384H122.268V26.4973H127.371V28.0335C127.371 29.1053 127.145 30.0263 126.692 30.7964C126.24 31.5626 125.616 32.1541 124.822 32.5709C124.028 32.9837 123.119 33.1902 122.095 33.1902C120.952 33.1902 119.948 32.9381 119.082 32.4339C118.217 31.9258 117.542 31.2053 117.058 30.2724C116.577 29.3356 116.337 28.2241 116.337 26.9379C116.337 25.9494 116.48 25.0682 116.766 24.2941C117.056 23.516 117.461 22.857 117.981 22.3172C118.501 21.7773 119.106 21.3664 119.797 21.0846C120.487 20.8027 121.236 20.6618 122.042 20.6618C122.732 20.6618 123.375 20.763 123.971 20.9655C124.566 21.164 125.094 21.4458 125.555 21.811C126.019 22.1762 126.398 22.6109 126.692 23.1151C126.986 23.6153 127.174 24.167 127.258 24.7704H124.638ZM129.308 33.0234V20.8285H137.525V22.9543H131.886V25.8601H137.102V27.9859H131.886V30.8977H137.549V33.0234H129.308ZM139.11 22.9543V20.8285H149.126V22.9543H145.392V33.0234H142.844V22.9543H139.11ZM161.272 24.3358C161.224 23.8554 161.02 23.4823 160.658 23.2163C160.297 22.9503 159.807 22.8173 159.188 22.8173C158.767 22.8173 158.411 22.8769 158.122 22.996C157.832 23.1111 157.61 23.2719 157.455 23.4783C157.304 23.6847 157.228 23.9189 157.228 24.1809C157.221 24.3993 157.266 24.5898 157.365 24.7526C157.469 24.9153 157.61 25.0563 157.788 25.1753C157.967 25.2905 158.173 25.3917 158.407 25.479C158.642 25.5624 158.892 25.6338 159.158 25.6934L160.253 25.9554C160.785 26.0745 161.274 26.2333 161.718 26.4318C162.163 26.6302 162.548 26.8744 162.873 27.1642C163.199 27.454 163.451 27.7953 163.63 28.1883C163.812 28.5813 163.905 29.0319 163.909 29.54C163.905 30.2863 163.715 30.9334 163.338 31.4812C162.965 32.0251 162.425 32.4478 161.718 32.7495C161.016 33.0473 160.168 33.1961 159.176 33.1961C158.191 33.1961 157.334 33.0453 156.603 32.7436C155.877 32.4419 155.309 31.9953 154.9 31.4038C154.495 30.8083 154.283 30.072 154.263 29.1947H156.758C156.786 29.6035 156.903 29.9449 157.109 30.2188C157.32 30.4888 157.6 30.6932 157.949 30.8322C158.302 30.9671 158.701 31.0346 159.146 31.0346C159.582 31.0346 159.962 30.9711 160.283 30.8441C160.609 30.717 160.861 30.5404 161.039 30.3141C161.218 30.0878 161.307 29.8278 161.307 29.5341C161.307 29.2602 161.226 29.0299 161.063 28.8433C160.904 28.6568 160.67 28.498 160.361 28.367C160.055 28.236 159.68 28.1169 159.235 28.0097L157.907 27.6763C156.879 27.4262 156.067 27.0351 155.472 26.5032C154.876 25.9713 154.581 25.2547 154.585 24.3536C154.581 23.6153 154.777 22.9702 155.174 22.4184C155.575 21.8666 156.125 21.4359 156.824 21.1263C157.522 20.8166 158.316 20.6618 159.205 20.6618C160.11 20.6618 160.9 20.8166 161.575 21.1263C162.254 21.4359 162.782 21.8666 163.159 22.4184C163.536 22.9702 163.731 23.6093 163.743 24.3358H161.272ZM165.179 22.9543V20.8285H175.195V22.9543H171.461V33.0234H168.913V22.9543H165.179ZM177.456 33.0234H174.693L178.903 20.8285H182.226L186.43 33.0234H183.667L180.612 23.6153H180.517L177.456 33.0234ZM177.283 28.23H183.81V30.2427H177.283V28.23ZM187.897 33.0234V20.8285H192.709C193.63 20.8285 194.416 20.9933 195.067 21.3228C195.722 21.6483 196.22 22.1107 196.561 22.7102C196.907 23.3056 197.079 24.0063 197.079 24.8121C197.079 25.6219 196.905 26.3186 196.555 26.9022C196.206 27.4817 195.7 27.9263 195.037 28.236C194.378 28.5456 193.58 28.7004 192.643 28.7004H189.422V26.6283H192.226C192.719 26.6283 193.127 26.5608 193.453 26.4258C193.778 26.2908 194.021 26.0884 194.179 25.8184C194.342 25.5485 194.424 25.2131 194.424 24.8121C194.424 24.4072 194.342 24.0658 194.179 23.7879C194.021 23.5101 193.776 23.2997 193.447 23.1568C193.121 23.0099 192.711 22.9364 192.214 22.9364H190.476V33.0234H187.897ZM194.483 27.4738L197.514 33.0234H194.668L191.702 27.4738H194.483ZM198.437 22.9543V20.8285H208.452V22.9543H204.719V33.0234H202.17V22.9543H198.437ZM210.102 33.0234V20.8285H218.319V22.9543H212.68V25.8601H217.896V27.9859H212.68V30.8977H218.343V33.0234H210.102ZM224.692 33.0234H220.369V20.8285H224.728C225.954 20.8285 227.01 21.0727 227.896 21.5609C228.781 22.0452 229.462 22.7419 229.938 23.651C230.418 24.56 230.658 25.6477 230.658 26.9141C230.658 28.1844 230.418 29.276 229.938 30.1891C229.462 31.1021 228.777 31.8028 227.884 32.291C226.994 32.7793 225.931 33.0234 224.692 33.0234ZM222.947 30.8143H224.585C225.347 30.8143 225.988 30.6793 226.508 30.4094C227.032 30.1355 227.425 29.7127 227.687 29.1411C227.953 28.5655 228.086 27.8231 228.086 26.9141C228.086 26.013 227.953 25.2766 227.687 24.7049C227.425 24.1333 227.034 23.7125 226.514 23.4426C225.994 23.1726 225.353 23.0377 224.591 23.0377H222.947V30.8143Z" fill="white"/>
</svg>
