<svg xmlns="http://www.w3.org/2000/svg" fill="none" viewBox="35.68389662027833 28.415999999999997 121.24850894632208 119.80799999999999" style="max-height: 500px" width="121.24850894632208" height="119.80799999999999">
<g filter="url(#filter0_d_646_2801)">
<rect fill="#FEFEFE" rx="24.7024" height="100" width="100" y="37" x="46.4434"/>
</g>
<g filter="url(#filter1_dii_646_2801)">
<path shape-rendering="crispEdges" fill-opacity="0.1" fill="#068992" d="M62.6797 80.8145H130.205V108.392C130.205 114.085 125.59 118.701 119.896 118.701H72.989C67.2953 118.701 62.6797 114.085 62.6797 108.392V80.8145Z"/>
</g>
<path fill="url(#paint0_linear_646_2801)" d="M100.005 62.5605C97.7715 61.4012 95.1137 61.4012 92.8804 62.5605L64.999 77.0333C63.574 77.773 62.6797 79.2448 62.6797 80.8503C62.6797 82.5521 63.6832 84.0939 65.2393 84.7828L93.426 97.2625C95.3471 98.113 97.538 98.113 99.4591 97.2625L127.646 84.7828C129.202 84.0939 130.205 82.5521 130.205 80.8503C130.205 79.2448 129.311 77.773 127.886 77.0333L100.005 62.5605Z"/>
<path fill="#1D9BF0" d="M77.1139 55.041C74.8365 55.041 72.9902 56.8873 72.9902 59.1647V88.2137L93.4273 97.2622C95.3484 98.1127 97.5393 98.1127 99.4604 97.2622L119.897 88.2137V59.1647C119.897 56.8873 118.051 55.041 115.774 55.041H77.1139Z" opacity="0.8"/>
<rect fill="#FEFEFE" rx="1.03093" height="4.63918" width="16.4948" y="62" x="79.1758"/>
<path fill="#FEFEFE" d="M79.1758 71.7936C79.1758 71.2243 79.6373 70.7627 80.2067 70.7627H112.681C113.25 70.7627 113.712 71.2243 113.712 71.7936V74.3709C113.712 74.9403 113.25 75.4019 112.681 75.4019H80.2067C79.6373 75.4019 79.1758 74.9403 79.1758 74.3709V71.7936Z" opacity="0.9"/>
<path fill="#FEFEFE" d="M79.1758 80.5568C79.1758 79.9874 79.6373 79.5259 80.2067 79.5259H105.722C106.292 79.5259 106.753 79.9874 106.753 80.5568V83.1341C106.753 83.7035 106.292 84.1651 105.722 84.1651H80.2067C79.6373 84.1651 79.1758 83.7035 79.1758 83.1341V80.5568Z" opacity="0.8"/>
<path fill="#FEFEFE" d="M83.6372 92.9277H98.2479C98.8173 92.9277 99.2789 92.4662 99.2789 91.8968V89.3195C99.2789 88.7501 98.8173 88.2886 98.2479 88.2886H80.2067C79.6373 88.2886 79.1758 88.7501 79.1758 89.3195V90.9525L83.6372 92.9277Z" opacity="0.6"/>
<defs>
<filter color-interpolation-filters="sRGB" filterUnits="userSpaceOnUse" height="191.324" width="191.324" y="0.100788" x="0.781261" id="filter0_d_646_2801">
<feFlood result="BackgroundImageFix" flood-opacity="0"/>
<feColorMatrix result="hardAlpha" values="0 0 0 0 0 0 0 0 0 0 0 0 0 0 0 0 0 0 127 0" type="matrix" in="SourceAlpha"/>
<feOffset dy="8.76289"/>
<feGaussianBlur stdDeviation="22.831"/>
<feComposite operator="out" in2="hardAlpha"/>
<feColorMatrix values="0 0 0 0 0.612153 0 0 0 0 0.647743 0 0 0 0 0.683333 0 0 0 0.4 0" type="matrix"/>
<feBlend result="effect1_dropShadow_646_2801" in2="BackgroundImageFix" mode="normal"/>
<feBlend result="shape" in2="effect1_dropShadow_646_2801" in="SourceGraphic" mode="normal"/>
</filter>
<filter color-interpolation-filters="sRGB" filterUnits="userSpaceOnUse" height="64.1754" width="90.2058" y="75.6598" x="51.3395" id="filter1_dii_646_2801">
<feFlood result="BackgroundImageFix" flood-opacity="0"/>
<feColorMatrix result="hardAlpha" values="0 0 0 0 0 0 0 0 0 0 0 0 0 0 0 0 0 0 127 0" type="matrix" in="SourceAlpha"/>
<feOffset dy="9.79381"/>
<feGaussianBlur stdDeviation="5.6701"/>
<feComposite operator="out" in2="hardAlpha"/>
<feColorMatrix values="0 0 0 0 0.847059 0 0 0 0 0.854902 0 0 0 0 0.862745 0 0 0 0.76 0" type="matrix"/>
<feBlend result="effect1_dropShadow_646_2801" in2="BackgroundImageFix" mode="normal"/>
<feBlend result="shape" in2="effect1_dropShadow_646_2801" in="SourceGraphic" mode="normal"/>
<feColorMatrix result="hardAlpha" values="0 0 0 0 0 0 0 0 0 0 0 0 0 0 0 0 0 0 127 0" type="matrix" in="SourceAlpha"/>
<feOffset dy="-5.15464"/>
<feGaussianBlur stdDeviation="3.86598"/>
<feComposite k3="1" k2="-1" operator="arithmetic" in2="hardAlpha"/>
<feColorMatrix values="0 0 0 0 0 0 0 0 0 0.473098 0 0 0 0 0.909804 0 0 0 0.57 0" type="matrix"/>
<feBlend result="effect2_innerShadow_646_2801" in2="shape" mode="normal"/>
<feColorMatrix result="hardAlpha" values="0 0 0 0 0 0 0 0 0 0 0 0 0 0 0 0 0 0 127 0" type="matrix" in="SourceAlpha"/>
<feOffset dy="1.03093"/>
<feGaussianBlur stdDeviation="2.44845"/>
<feComposite k3="1" k2="-1" operator="arithmetic" in2="hardAlpha"/>
<feColorMatrix values="0 0 0 0 1 0 0 0 0 1 0 0 0 0 1 0 0 0 0.38 0" type="matrix"/>
<feBlend result="effect3_innerShadow_646_2801" in2="effect2_innerShadow_646_2801" mode="normal"/>
</filter>
<linearGradient gradientUnits="userSpaceOnUse" y2="98.598" x2="96.4426" y1="60.7114" x1="96.4426" id="paint0_linear_646_2801">
<stop stop-color="#00B2FF"/>
<stop stop-color="#068992" offset="1"/>
</linearGradient>
</defs>
</svg>