<svg width="347" height="53" viewBox="0 0 347 53" fill="none" xmlns="http://www.w3.org/2000/svg">
<rect width="346.888" height="52.152" rx="21.0229" fill="#068992"/>
<path d="M165.536 20.3813V32.5762H163.309L158.004 24.9008H157.915V32.5762H155.336V20.3813H157.599L162.863 28.0507H162.97V20.3813H165.536ZM171.787 32.7548C170.846 32.7548 170.037 32.5643 169.358 32.1832C168.683 31.7981 168.163 31.2543 167.798 30.5516C167.432 29.845 167.25 29.0094 167.25 28.0448C167.25 27.1039 167.432 26.2782 167.798 25.5677C168.163 24.8571 168.677 24.3033 169.34 23.9064C170.007 23.5094 170.789 23.3109 171.686 23.3109C172.289 23.3109 172.851 23.4082 173.371 23.6027C173.895 23.7932 174.352 24.081 174.741 24.4661C175.134 24.8511 175.439 25.3354 175.658 25.919C175.876 26.4986 175.985 27.1774 175.985 27.9554V28.6521H168.262V27.0801H173.597C173.597 26.7149 173.518 26.3914 173.359 26.1095C173.2 25.8277 172.98 25.6074 172.698 25.4486C172.42 25.2858 172.097 25.2044 171.728 25.2044C171.343 25.2044 171.001 25.2938 170.704 25.4724C170.41 25.6471 170.18 25.8833 170.013 26.181C169.846 26.4747 169.761 26.8022 169.757 27.1635V28.6581C169.757 29.1106 169.84 29.5016 170.007 29.8311C170.178 30.1606 170.418 30.4147 170.727 30.5933C171.037 30.7719 171.404 30.8613 171.829 30.8613C172.111 30.8613 172.369 30.8216 172.603 30.7422C172.837 30.6628 173.038 30.5437 173.204 30.3849C173.371 30.2261 173.498 30.0316 173.586 29.8014L175.932 29.9562C175.813 30.5199 175.568 31.0121 175.199 31.4329C174.834 31.8497 174.362 32.1752 173.782 32.4094C173.206 32.6397 172.541 32.7548 171.787 32.7548ZM179.597 23.43L181.276 26.6276L182.997 23.43H185.599L182.949 28.0031L185.67 32.5762H183.08L181.276 29.4143L179.501 32.5762H176.881L179.597 28.0031L176.977 23.43H179.597ZM191.97 23.43V25.3354H186.462V23.43H191.97ZM187.713 21.2387H190.249V29.7656C190.249 29.9998 190.285 30.1824 190.357 30.3134C190.428 30.4405 190.527 30.5298 190.654 30.5814C190.785 30.633 190.936 30.6588 191.107 30.6588C191.226 30.6588 191.345 30.6489 191.464 30.629C191.583 30.6052 191.674 30.5874 191.738 30.5754L192.137 32.463C192.01 32.5027 191.831 32.5484 191.601 32.6C191.371 32.6556 191.091 32.6893 190.761 32.7012C190.15 32.725 189.614 32.6437 189.154 32.4571C188.697 32.2705 188.342 31.9807 188.088 31.5877C187.834 31.1947 187.709 30.6985 187.713 30.0991V21.2387Z" fill="white"/>
</svg>
