<svg width="324" height="51" viewBox="0 0 324 51" fill="none" xmlns="http://www.w3.org/2000/svg">
<rect width="323.138" height="50.6379" rx="18.7593" fill="#068992"/>
<path d="M93.4558 32.3188V18.927H98.7393C99.7507 18.927 100.614 19.1079 101.329 19.4697C102.048 19.8272 102.595 20.3351 102.97 20.9933C103.349 21.6472 103.539 22.4166 103.539 23.3016C103.539 24.1909 103.347 24.9559 102.964 25.5968C102.58 26.2332 102.024 26.7215 101.296 27.0615C100.572 27.4015 99.6962 27.5715 98.6674 27.5715H95.1298V25.296H98.2097C98.7502 25.296 99.1992 25.2219 99.5567 25.0736C99.9142 24.9254 100.18 24.7031 100.354 24.4067C100.533 24.1102 100.623 23.7419 100.623 23.3016C100.623 22.8569 100.533 22.482 100.354 22.1769C100.18 21.8717 99.912 21.6407 99.5502 21.4837C99.1927 21.3225 98.7415 21.2418 98.1966 21.2418H96.2872V32.3188H93.4558ZM100.688 26.2245L104.016 32.3188H100.891L97.6342 26.2245H100.688ZM109.903 32.515C108.87 32.515 107.981 32.3058 107.235 31.8873C106.494 31.4644 105.923 30.8672 105.522 30.0956C105.121 29.3196 104.92 28.402 104.92 27.3427C104.92 26.3095 105.121 25.4028 105.522 24.6225C105.923 23.8421 106.487 23.234 107.215 22.7981C107.948 22.3621 108.807 22.1442 109.792 22.1442C110.454 22.1442 111.071 22.251 111.642 22.4646C112.218 22.6738 112.719 22.9899 113.146 23.4127C113.578 23.8356 113.914 24.3674 114.153 25.0083C114.393 25.6447 114.513 26.3902 114.513 27.2446V28.0097H106.032V26.2834H111.891C111.891 25.8823 111.804 25.527 111.629 25.2175C111.455 24.908 111.213 24.6661 110.903 24.4917C110.598 24.3129 110.243 24.2236 109.838 24.2236C109.415 24.2236 109.04 24.3217 108.713 24.5178C108.39 24.7096 108.137 24.969 107.954 25.296C107.771 25.6186 107.678 25.9782 107.673 26.3749V28.0162C107.673 28.5132 107.765 28.9426 107.948 29.3044C108.135 29.6662 108.399 29.9452 108.739 30.1414C109.079 30.3375 109.482 30.4356 109.949 30.4356C110.258 30.4356 110.542 30.392 110.799 30.3048C111.056 30.2177 111.276 30.0869 111.459 29.9125C111.642 29.7381 111.782 29.5245 111.878 29.2717L114.454 29.4417C114.323 30.0607 114.055 30.6013 113.65 31.0634C113.249 31.5211 112.73 31.8786 112.094 32.1358C111.461 32.3886 110.731 32.515 109.903 32.515ZM122.968 36.0853V30.7103H122.883C122.752 30.9893 122.567 31.2661 122.327 31.5407C122.092 31.811 121.784 32.0355 121.405 32.2142C121.03 32.393 120.572 32.4823 120.032 32.4823C119.269 32.4823 118.578 32.2862 117.959 31.8938C117.344 31.4971 116.856 30.9151 116.494 30.1479C116.137 29.3763 115.958 28.4303 115.958 27.31C115.958 26.1591 116.143 25.2022 116.514 24.4394C116.884 23.6721 117.377 23.0989 117.992 22.7196C118.611 22.336 119.289 22.1442 120.025 22.1442C120.588 22.1442 121.056 22.2401 121.431 22.4319C121.811 22.6194 122.116 22.8548 122.347 23.1381C122.582 23.4171 122.761 23.6917 122.883 23.962H123.001V22.275H125.747V36.0853H122.968ZM120.915 30.2656C121.364 30.2656 121.743 30.1435 122.052 29.8994C122.366 29.6509 122.606 29.3044 122.772 28.8597C122.942 28.4151 123.027 27.8941 123.027 27.2969C123.027 26.6997 122.944 26.1809 122.778 25.7406C122.613 25.3003 122.373 24.9603 122.059 24.7205C121.745 24.4808 121.364 24.3609 120.915 24.3609C120.457 24.3609 120.071 24.4851 119.757 24.7336C119.443 24.9821 119.206 25.3265 119.045 25.7668C118.883 26.2071 118.803 26.7171 118.803 27.2969C118.803 27.8811 118.883 28.3976 119.045 28.8466C119.21 29.2913 119.448 29.64 119.757 29.8929C120.071 30.1414 120.457 30.2656 120.915 30.2656ZM134.424 28.0423V22.275H137.21V32.3188H134.535V30.4945H134.431C134.204 31.083 133.827 31.556 133.3 31.9134C132.776 32.2709 132.138 32.4496 131.384 32.4496C130.712 32.4496 130.122 32.2971 129.612 31.9919C129.101 31.6867 128.703 31.253 128.415 30.6906C128.132 30.1283 127.988 29.4548 127.983 28.6701V22.275H130.769V28.1731C130.773 28.766 130.932 29.2346 131.246 29.579C131.56 29.9234 131.981 30.0956 132.508 30.0956C132.844 30.0956 133.158 30.0193 133.45 29.8667C133.742 29.7098 133.977 29.4787 134.156 29.1736C134.339 28.8684 134.429 28.4914 134.424 28.0423ZM144.015 32.515C142.982 32.515 142.093 32.3058 141.347 31.8873C140.606 31.4644 140.035 30.8672 139.634 30.0956C139.233 29.3196 139.033 28.402 139.033 27.3427C139.033 26.3095 139.233 25.4028 139.634 24.6225C140.035 23.8421 140.6 23.234 141.328 22.7981C142.06 22.3621 142.919 22.1442 143.904 22.1442C144.567 22.1442 145.184 22.251 145.755 22.4646C146.33 22.6738 146.831 22.9899 147.259 23.4127C147.69 23.8356 148.026 24.3674 148.266 25.0083C148.505 25.6447 148.625 26.3902 148.625 27.2446V28.0097H140.144V26.2834H146.003C146.003 25.8823 145.916 25.527 145.742 25.2175C145.567 24.908 145.325 24.6661 145.016 24.4917C144.711 24.3129 144.355 24.2236 143.95 24.2236C143.527 24.2236 143.152 24.3217 142.825 24.5178C142.503 24.7096 142.25 24.969 142.067 25.296C141.884 25.6186 141.79 25.9782 141.785 26.3749V28.0162C141.785 28.5132 141.877 28.9426 142.06 29.3044C142.248 29.6662 142.511 29.9452 142.851 30.1414C143.191 30.3375 143.595 30.4356 144.061 30.4356C144.371 30.4356 144.654 30.392 144.911 30.3048C145.168 30.2177 145.388 30.0869 145.572 29.9125C145.755 29.7381 145.894 29.5245 145.99 29.2717L148.566 29.4417C148.436 30.0607 148.168 30.6013 147.762 31.0634C147.361 31.5211 146.842 31.8786 146.206 32.1358C145.574 32.3886 144.844 32.515 144.015 32.515ZM158.8 25.139L156.25 25.296C156.206 25.078 156.112 24.8818 155.969 24.7075C155.825 24.5287 155.635 24.3871 155.4 24.2824C155.169 24.1734 154.892 24.119 154.569 24.119C154.138 24.119 153.774 24.2105 153.477 24.3936C153.181 24.5723 153.033 24.8121 153.033 25.1129C153.033 25.3526 153.128 25.5554 153.32 25.721C153.512 25.8867 153.841 26.0196 154.308 26.1199L156.125 26.4861C157.102 26.6866 157.83 27.0092 158.309 27.4538C158.789 27.8985 159.029 28.4826 159.029 29.2063C159.029 29.8645 158.835 30.4422 158.447 30.9391C158.063 31.4361 157.536 31.8241 156.864 32.1031C156.197 32.3777 155.428 32.515 154.556 32.515C153.227 32.515 152.167 32.2382 151.378 31.6846C150.593 31.1266 150.134 30.368 149.998 29.409L152.738 29.2651C152.821 29.6706 153.022 29.9801 153.34 30.1937C153.658 30.4029 154.066 30.5075 154.563 30.5075C155.051 30.5075 155.443 30.4138 155.74 30.2264C156.04 30.0346 156.193 29.7883 156.197 29.4875C156.193 29.2346 156.086 29.0276 155.877 28.8663C155.668 28.7006 155.345 28.5742 154.909 28.487L153.17 28.1404C152.189 27.9443 151.459 27.6042 150.979 27.1204C150.504 26.6365 150.267 26.0196 150.267 25.2698C150.267 24.6246 150.441 24.0688 150.79 23.6024C151.143 23.1359 151.638 22.7763 152.274 22.5234C152.915 22.2706 153.665 22.1442 154.523 22.1442C155.792 22.1442 156.79 22.4123 157.518 22.9485C158.251 23.4847 158.678 24.2149 158.8 25.139ZM166.125 22.275V24.3674H160.077V22.275H166.125ZM161.45 19.8686H164.235V29.2324C164.235 29.4896 164.275 29.6902 164.353 29.834C164.432 29.9735 164.541 30.0716 164.68 30.1283C164.824 30.185 164.99 30.2133 165.177 30.2133C165.308 30.2133 165.439 30.2024 165.569 30.1806C165.7 30.1544 165.8 30.1348 165.87 30.1217L166.308 32.1946C166.169 32.2382 165.973 32.2883 165.72 32.345C165.467 32.406 165.16 32.4431 164.798 32.4562C164.126 32.4823 163.538 32.393 163.032 32.1881C162.531 31.9832 162.141 31.6649 161.862 31.2334C161.583 30.8018 161.445 30.2569 161.45 29.5986V19.8686ZM175.066 32.5085C174.425 32.5085 173.854 32.3973 173.352 32.175C172.851 31.9483 172.454 31.6148 172.162 31.1745C171.875 30.7299 171.731 30.1762 171.731 29.5136C171.731 28.9556 171.833 28.487 172.038 28.1077C172.243 27.7285 172.522 27.4233 172.875 27.1923C173.228 26.9612 173.629 26.7869 174.078 26.6692C174.532 26.5515 175.007 26.4686 175.504 26.4207C176.088 26.3597 176.559 26.303 176.916 26.2507C177.274 26.194 177.533 26.1112 177.694 26.0022C177.856 25.8932 177.936 25.7319 177.936 25.5183V25.4791C177.936 25.0649 177.805 24.7445 177.544 24.5178C177.287 24.2912 176.921 24.1778 176.445 24.1778C175.944 24.1778 175.545 24.289 175.249 24.5113C174.952 24.7293 174.756 25.0039 174.66 25.3352L172.084 25.126C172.215 24.5157 172.472 23.9882 172.855 23.5435C173.239 23.0945 173.734 22.7501 174.34 22.5104C174.95 22.2662 175.656 22.1442 176.458 22.1442C177.016 22.1442 177.55 22.2096 178.061 22.3404C178.575 22.4711 179.03 22.6738 179.427 22.9485C179.828 23.2231 180.144 23.5762 180.375 24.0078C180.606 24.435 180.722 24.9472 180.722 25.5445V32.3188H178.08V30.926H178.002C177.84 31.2399 177.625 31.5167 177.354 31.7565C177.084 31.9919 176.759 32.1772 176.38 32.3123C176.001 32.4431 175.563 32.5085 175.066 32.5085ZM175.863 30.586C176.273 30.586 176.635 30.5054 176.949 30.3441C177.263 30.1784 177.509 29.9561 177.688 29.6771C177.867 29.3981 177.956 29.082 177.956 28.7289V27.6631C177.869 27.7198 177.749 27.7721 177.596 27.82C177.448 27.8636 177.28 27.905 177.093 27.9443C176.905 27.9791 176.718 28.0118 176.53 28.0423C176.343 28.0685 176.173 28.0925 176.02 28.1143C175.693 28.1622 175.408 28.2385 175.164 28.3431C174.92 28.4478 174.73 28.5894 174.595 28.7682C174.46 28.9426 174.392 29.1605 174.392 29.4221C174.392 29.8013 174.529 30.0912 174.804 30.2918C175.083 30.4879 175.436 30.586 175.863 30.586ZM191.683 32.515C190.654 32.515 189.769 32.2971 189.028 31.8611C188.291 31.4208 187.725 30.8105 187.328 30.0302C186.936 29.2499 186.739 28.3519 186.739 27.3361C186.739 26.3073 186.938 25.405 187.334 24.629C187.735 23.8487 188.304 23.2406 189.041 22.8046C189.778 22.3643 190.654 22.1442 191.67 22.1442C192.546 22.1442 193.313 22.3033 193.971 22.6215C194.63 22.9398 195.151 23.3866 195.534 23.962C195.918 24.5375 196.129 25.2131 196.169 25.9891H193.54C193.466 25.4878 193.27 25.0845 192.951 24.7794C192.638 24.4699 192.226 24.3151 191.716 24.3151C191.284 24.3151 190.907 24.4328 190.584 24.6682C190.266 24.8993 190.018 25.2371 189.839 25.6818C189.66 26.1264 189.571 26.6648 189.571 27.2969C189.571 27.9377 189.658 28.4826 189.832 28.9317C190.011 29.3807 190.262 29.7229 190.584 29.9583C190.907 30.1937 191.284 30.3114 191.716 30.3114C192.034 30.3114 192.319 30.246 192.572 30.1152C192.829 29.9844 193.041 29.7948 193.206 29.5463C193.376 29.2935 193.488 28.9905 193.54 28.6374H196.169C196.125 29.4046 195.916 30.0803 195.541 30.6645C195.17 31.2443 194.658 31.6976 194.004 32.0246C193.35 32.3515 192.577 32.515 191.683 32.515ZM202.49 32.515C201.474 32.515 200.596 32.2992 199.855 31.8677C199.118 31.4317 198.549 30.8258 198.148 30.0498C197.747 29.2695 197.547 28.3649 197.547 27.3361C197.547 26.2986 197.747 25.3919 198.148 24.6159C198.549 23.8356 199.118 23.2297 199.855 22.7981C200.596 22.3621 201.474 22.1442 202.49 22.1442C203.506 22.1442 204.382 22.3621 205.119 22.7981C205.86 23.2297 206.431 23.8356 206.832 24.6159C207.233 25.3919 207.434 26.2986 207.434 27.3361C207.434 28.3649 207.233 29.2695 206.832 30.0498C206.431 30.8258 205.86 31.4317 205.119 31.8677C204.382 32.2992 203.506 32.515 202.49 32.515ZM202.503 30.3572C202.965 30.3572 203.351 30.2264 203.661 29.9648C203.97 29.6989 204.203 29.3371 204.36 28.8793C204.522 28.4216 204.602 27.9007 204.602 27.3165C204.602 26.7324 204.522 26.2114 204.36 25.7537C204.203 25.296 203.97 24.9342 203.661 24.6682C203.351 24.4023 202.965 24.2694 202.503 24.2694C202.037 24.2694 201.644 24.4023 201.326 24.6682C201.012 24.9342 200.775 25.296 200.613 25.7537C200.457 26.2114 200.378 26.7324 200.378 27.3165C200.378 27.9007 200.457 28.4216 200.613 28.8793C200.775 29.3371 201.012 29.6989 201.326 29.9648C201.644 30.2264 202.037 30.3572 202.503 30.3572ZM212.946 32.4823C212.183 32.4823 211.492 32.2862 210.873 31.8938C210.258 31.4971 209.77 30.9151 209.408 30.1479C209.051 29.3763 208.872 28.4303 208.872 27.31C208.872 26.1591 209.057 25.2022 209.428 24.4394C209.799 23.6721 210.291 23.0989 210.906 22.7196C211.525 22.336 212.203 22.1442 212.939 22.1442C213.502 22.1442 213.97 22.2401 214.345 22.4319C214.725 22.6194 215.03 22.8548 215.261 23.1381C215.496 23.4171 215.675 23.6917 215.797 23.962H215.882V18.927H218.661V32.3188H215.915V30.7103H215.797C215.666 30.9893 215.481 31.2661 215.241 31.5407C215.006 31.811 214.698 32.0355 214.319 32.2142C213.944 32.393 213.487 32.4823 212.946 32.4823ZM213.829 30.2656C214.278 30.2656 214.657 30.1435 214.967 29.8994C215.28 29.6509 215.52 29.3044 215.686 28.8597C215.856 28.4151 215.941 27.8941 215.941 27.2969C215.941 26.6997 215.858 26.1809 215.692 25.7406C215.527 25.3003 215.287 24.9603 214.973 24.7205C214.659 24.4808 214.278 24.3609 213.829 24.3609C213.371 24.3609 212.985 24.4851 212.671 24.7336C212.357 24.9821 212.12 25.3265 211.959 25.7668C211.797 26.2071 211.717 26.7171 211.717 27.2969C211.717 27.8811 211.797 28.3976 211.959 28.8466C212.124 29.2913 212.362 29.64 212.671 29.8929C212.985 30.1414 213.371 30.2656 213.829 30.2656ZM225.529 32.515C224.495 32.515 223.606 32.3058 222.861 31.8873C222.12 31.4644 221.549 30.8672 221.148 30.0956C220.746 29.3196 220.546 28.402 220.546 27.3427C220.546 26.3095 220.746 25.4028 221.148 24.6225C221.549 23.8421 222.113 23.234 222.841 22.7981C223.573 22.3621 224.432 22.1442 225.417 22.1442C226.08 22.1442 226.697 22.251 227.268 22.4646C227.843 22.6738 228.345 22.9899 228.772 23.4127C229.204 23.8356 229.539 24.3674 229.779 25.0083C230.019 25.6447 230.139 26.3902 230.139 27.2446V28.0097H221.658V26.2834H227.517C227.517 25.8823 227.429 25.527 227.255 25.2175C227.081 24.908 226.839 24.6661 226.529 24.4917C226.224 24.3129 225.869 24.2236 225.463 24.2236C225.04 24.2236 224.666 24.3217 224.339 24.5178C224.016 24.7096 223.763 24.969 223.58 25.296C223.397 25.6186 223.303 25.9782 223.299 26.3749V28.0162C223.299 28.5132 223.39 28.9426 223.573 29.3044C223.761 29.6662 224.025 29.9452 224.365 30.1414C224.705 30.3375 225.108 30.4356 225.574 30.4356C225.884 30.4356 226.167 30.392 226.424 30.3048C226.682 30.2177 226.902 30.0869 227.085 29.9125C227.268 29.7381 227.408 29.5245 227.503 29.2717L230.08 29.4417C229.949 30.0607 229.681 30.6013 229.275 31.0634C228.874 31.5211 228.356 31.8786 227.719 32.1358C227.087 32.3886 226.357 32.515 225.529 32.515Z" fill="white"/>
</svg>
