<svg xmlns="http://www.w3.org/2000/svg" fill="none" viewBox="14.697000000000001 8.933701657458563 184.032 49.56077348066298" style="max-height: 500px" width="184.032" height="49.56077348066298">
<g filter="url(#filter0_d_1099_1950)">
<g clip-path="url(#clip0_1099_1950)">
<rect fill="white" rx="12" height="47" width="183" y="10" x="15"/>
<path fill="#068992" d="M49.879 29.853C49.807 29.979 49.729 30.072 49.645 30.132C49.567 30.186 49.468 30.213 49.348 30.213C49.222 30.213 49.084 30.168 48.934 30.078C48.79 29.982 48.616 29.877 48.412 29.763C48.208 29.649 47.968 29.547 47.692 29.457C47.422 29.361 47.101 29.313 46.729 29.313C46.393 29.313 46.099 29.355 45.847 29.439C45.595 29.517 45.382 29.628 45.208 29.772C45.04 29.916 44.914 30.09 44.83 30.294C44.746 30.492 44.704 30.711 44.704 30.951C44.704 31.257 44.788 31.512 44.956 31.716C45.13 31.92 45.358 32.094 45.64 32.238C45.922 32.382 46.243 32.511 46.603 32.625C46.963 32.739 47.332 32.862 47.71 32.994C48.088 33.12 48.457 33.27 48.817 33.444C49.177 33.612 49.498 33.828 49.78 34.092C50.062 34.35 50.287 34.668 50.455 35.046C50.629 35.424 50.716 35.883 50.716 36.423C50.716 37.011 50.614 37.563 50.41 38.079C50.212 38.589 49.918 39.036 49.528 39.42C49.144 39.798 48.673 40.098 48.115 40.32C47.557 40.536 46.918 40.644 46.198 40.644C45.784 40.644 45.376 40.602 44.974 40.518C44.572 40.44 44.185 40.326 43.813 40.176C43.447 40.026 43.102 39.846 42.778 39.636C42.454 39.426 42.166 39.192 41.914 38.934L42.625 37.773C42.685 37.689 42.763 37.62 42.859 37.566C42.955 37.506 43.057 37.476 43.165 37.476C43.315 37.476 43.477 37.539 43.651 37.665C43.825 37.785 44.032 37.92 44.272 38.07C44.512 38.22 44.791 38.358 45.109 38.484C45.433 38.604 45.82 38.664 46.27 38.664C46.96 38.664 47.494 38.502 47.872 38.178C48.25 37.848 48.439 37.377 48.439 36.765C48.439 36.423 48.352 36.144 48.178 35.928C48.01 35.712 47.785 35.532 47.503 35.388C47.221 35.238 46.9 35.112 46.54 35.01C46.18 34.908 45.814 34.797 45.442 34.677C45.07 34.557 44.704 34.413 44.344 34.245C43.984 34.077 43.663 33.858 43.381 33.588C43.099 33.318 42.871 32.982 42.697 32.58C42.529 32.172 42.445 31.671 42.445 31.077C42.445 30.603 42.538 30.141 42.724 29.691C42.916 29.241 43.192 28.842 43.552 28.494C43.912 28.146 44.356 27.867 44.884 27.657C45.412 27.447 46.018 27.342 46.702 27.342C47.47 27.342 48.178 27.462 48.826 27.702C49.474 27.942 50.026 28.278 50.482 28.71L49.879 29.853ZM59.0568 33.219C58.9908 33.303 58.9248 33.369 58.8588 33.417C58.7988 33.465 58.7088 33.489 58.5888 33.489C58.4748 33.489 58.3638 33.456 58.2558 33.39C58.1478 33.318 58.0188 33.24 57.8688 33.156C57.7188 33.066 57.5388 32.988 57.3288 32.922C57.1248 32.85 56.8698 32.814 56.5638 32.814C56.1738 32.814 55.8318 32.886 55.5378 33.03C55.2438 33.168 54.9978 33.369 54.7998 33.633C54.6078 33.897 54.4638 34.218 54.3678 34.596C54.2718 34.968 54.2238 35.391 54.2238 35.865C54.2238 36.357 54.2748 36.795 54.3768 37.179C54.4848 37.563 54.6378 37.887 54.8358 38.151C55.0338 38.409 55.2738 38.607 55.5558 38.745C55.8378 38.877 56.1558 38.943 56.5098 38.943C56.8638 38.943 57.1488 38.901 57.3648 38.817C57.5868 38.727 57.7728 38.631 57.9228 38.529C58.0728 38.421 58.2018 38.325 58.3098 38.241C58.4238 38.151 58.5498 38.106 58.6878 38.106C58.8678 38.106 59.0028 38.175 59.0928 38.313L59.7318 39.123C59.4858 39.411 59.2188 39.654 58.9308 39.852C58.6428 40.044 58.3428 40.2 58.0308 40.32C57.7248 40.434 57.4068 40.515 57.0768 40.563C56.7528 40.611 56.4288 40.635 56.1048 40.635C55.5348 40.635 54.9978 40.53 54.4938 40.32C53.9898 40.104 53.5488 39.792 53.1708 39.384C52.7928 38.976 52.4928 38.478 52.2708 37.89C52.0548 37.296 51.9468 36.621 51.9468 35.865C51.9468 35.187 52.0428 34.56 52.2348 33.984C52.4328 33.402 52.7208 32.901 53.0988 32.481C53.4768 32.055 53.9448 31.722 54.5028 31.482C55.0608 31.242 55.7028 31.122 56.4287 31.122C57.1188 31.122 57.7218 31.233 58.2378 31.455C58.7598 31.677 59.2278 31.995 59.6418 32.409L59.0568 33.219ZM63.2223 32.868C63.5103 32.316 63.8523 31.884 64.2483 31.572C64.6443 31.254 65.1123 31.095 65.6523 31.095C66.0783 31.095 66.4203 31.188 66.6783 31.374L66.5343 33.039C66.5043 33.147 66.4593 33.225 66.3993 33.273C66.3453 33.315 66.2703 33.336 66.1743 33.336C66.0843 33.336 65.9493 33.321 65.7693 33.291C65.5953 33.261 65.4243 33.246 65.2563 33.246C65.0103 33.246 64.7913 33.282 64.5993 33.354C64.4073 33.426 64.2333 33.531 64.0773 33.669C63.9273 33.801 63.7923 33.963 63.6723 34.155C63.5583 34.347 63.4503 34.566 63.3483 34.812V40.5H61.1253V31.266H62.4303C62.6583 31.266 62.8173 31.308 62.9073 31.392C62.9973 31.47 63.0573 31.614 63.0873 31.824L63.2223 32.868ZM71.6625 31.122C72.3465 31.122 72.9675 31.233 73.5255 31.455C74.0895 31.677 74.5695 31.992 74.9655 32.4C75.3675 32.808 75.6765 33.306 75.8925 33.894C76.1085 34.482 76.2165 35.139 76.2165 35.865C76.2165 36.597 76.1085 37.257 75.8925 37.845C75.6765 38.433 75.3675 38.934 74.9655 39.348C74.5695 39.762 74.0895 40.08 73.5255 40.302C72.9675 40.524 72.3465 40.635 71.6625 40.635C70.9725 40.635 70.3455 40.524 69.7815 40.302C69.2175 40.08 68.7345 39.762 68.3325 39.348C67.9365 38.934 67.6275 38.433 67.4055 37.845C67.1895 37.257 67.0815 36.597 67.0815 35.865C67.0815 35.139 67.1895 34.482 67.4055 33.894C67.6275 33.306 67.9365 32.808 68.3325 32.4C68.7345 31.992 69.2175 31.677 69.7815 31.455C70.3455 31.233 70.9725 31.122 71.6625 31.122ZM71.6625 38.925C72.4305 38.925 72.9975 38.667 73.3635 38.151C73.7355 37.635 73.9215 36.879 73.9215 35.883C73.9215 34.887 73.7355 34.128 73.3635 33.606C72.9975 33.084 72.4305 32.823 71.6625 32.823C70.8825 32.823 70.3035 33.087 69.9255 33.615C69.5535 34.137 69.3675 34.893 69.3675 35.883C69.3675 36.873 69.5535 37.629 69.9255 38.151C70.3035 38.667 70.8825 38.925 71.6625 38.925ZM80.1625 27.126V40.5H77.9395V27.126H80.1625ZM84.6273 27.126V40.5H82.4043V27.126H84.6273ZM94.2971 40.644C93.4931 40.644 92.8751 40.419 92.4431 39.969C92.0171 39.513 91.8041 38.886 91.8041 38.088V32.931H90.8591C90.7391 32.931 90.6371 32.892 90.5531 32.814C90.4691 32.736 90.4271 32.619 90.4271 32.463V31.581L91.9121 31.338L92.3801 28.818C92.4101 28.698 92.4671 28.605 92.5511 28.539C92.6351 28.473 92.7431 28.44 92.8751 28.44H94.0271V31.347H96.4931V32.931H94.0271V37.935C94.0271 38.223 94.0961 38.448 94.2341 38.61C94.3781 38.772 94.5731 38.853 94.8191 38.853C94.9571 38.853 95.0711 38.838 95.1611 38.808C95.2571 38.772 95.3381 38.736 95.4041 38.7C95.4761 38.664 95.5391 38.631 95.5931 38.601C95.6471 38.565 95.7011 38.547 95.7551 38.547C95.8211 38.547 95.8751 38.565 95.9171 38.601C95.9591 38.631 96.0041 38.679 96.0521 38.745L96.7181 39.825C96.3941 40.095 96.0221 40.299 95.6021 40.437C95.1821 40.575 94.7471 40.644 94.2971 40.644ZM101.932 31.122C102.616 31.122 103.237 31.233 103.795 31.455C104.359 31.677 104.839 31.992 105.235 32.4C105.637 32.808 105.946 33.306 106.162 33.894C106.378 34.482 106.486 35.139 106.486 35.865C106.486 36.597 106.378 37.257 106.162 37.845C105.946 38.433 105.637 38.934 105.235 39.348C104.839 39.762 104.359 40.08 103.795 40.302C103.237 40.524 102.616 40.635 101.932 40.635C101.242 40.635 100.615 40.524 100.051 40.302C99.487 40.08 99.004 39.762 98.602 39.348C98.206 38.934 97.897 38.433 97.675 37.845C97.459 37.257 97.351 36.597 97.351 35.865C97.351 35.139 97.459 34.482 97.675 33.894C97.897 33.306 98.206 32.808 98.602 32.4C99.004 31.992 99.487 31.677 100.051 31.455C100.615 31.233 101.242 31.122 101.932 31.122ZM101.932 38.925C102.7 38.925 103.267 38.667 103.633 38.151C104.005 37.635 104.191 36.879 104.191 35.883C104.191 34.887 104.005 34.128 103.633 33.606C103.267 33.084 102.7 32.823 101.932 32.823C101.152 32.823 100.573 33.087 100.195 33.615C99.823 34.137 99.637 34.893 99.637 35.883C99.637 36.873 99.823 37.629 100.195 38.151C100.573 38.667 101.152 38.925 101.932 38.925ZM117.779 38.61C118.229 38.61 118.607 38.556 118.913 38.448C119.219 38.34 119.462 38.196 119.642 38.016C119.828 37.836 119.96 37.626 120.038 37.386C120.122 37.146 120.164 36.891 120.164 36.621C120.164 36.339 120.119 36.087 120.029 35.865C119.939 35.637 119.798 35.445 119.606 35.289C119.414 35.127 119.165 35.004 118.859 34.92C118.559 34.836 118.196 34.794 117.77 34.794H115.331V38.61H117.779ZM115.331 29.358V33.12H117.257C118.085 33.12 118.709 32.97 119.129 32.67C119.555 32.37 119.768 31.893 119.768 31.239C119.768 30.561 119.576 30.078 119.192 29.79C118.808 29.502 118.208 29.358 117.392 29.358H115.331ZM117.392 27.486C118.244 27.486 118.973 27.567 119.579 27.729C120.185 27.891 120.68 28.122 121.064 28.422C121.454 28.722 121.739 29.085 121.919 29.511C122.099 29.937 122.189 30.417 122.189 30.951C122.189 31.257 122.144 31.551 122.054 31.833C121.964 32.109 121.823 32.37 121.631 32.616C121.445 32.856 121.205 33.075 120.911 33.273C120.623 33.471 120.278 33.639 119.876 33.777C121.664 34.179 122.558 35.145 122.558 36.675C122.558 37.227 122.453 37.737 122.243 38.205C122.033 38.673 121.727 39.078 121.325 39.42C120.923 39.756 120.428 40.02 119.84 40.212C119.252 40.404 118.58 40.5 117.824 40.5H112.91V27.486H117.392ZM128.37 31.122C129.054 31.122 129.675 31.233 130.233 31.455C130.797 31.677 131.277 31.992 131.673 32.4C132.075 32.808 132.384 33.306 132.6 33.894C132.816 34.482 132.924 35.139 132.924 35.865C132.924 36.597 132.816 37.257 132.6 37.845C132.384 38.433 132.075 38.934 131.673 39.348C131.277 39.762 130.797 40.08 130.233 40.302C129.675 40.524 129.054 40.635 128.37 40.635C127.68 40.635 127.053 40.524 126.489 40.302C125.925 40.08 125.442 39.762 125.04 39.348C124.644 38.934 124.335 38.433 124.113 37.845C123.897 37.257 123.789 36.597 123.789 35.865C123.789 35.139 123.897 34.482 124.113 33.894C124.335 33.306 124.644 32.808 125.04 32.4C125.442 31.992 125.925 31.677 126.489 31.455C127.053 31.233 127.68 31.122 128.37 31.122ZM128.37 38.925C129.138 38.925 129.705 38.667 130.071 38.151C130.443 37.635 130.629 36.879 130.629 35.883C130.629 34.887 130.443 34.128 130.071 33.606C129.705 33.084 129.138 32.823 128.37 32.823C127.59 32.823 127.011 33.087 126.633 33.615C126.261 34.137 126.075 34.893 126.075 35.883C126.075 36.873 126.261 37.629 126.633 38.151C127.011 38.667 127.59 38.925 128.37 38.925ZM137.522 40.644C136.718 40.644 136.1 40.419 135.668 39.969C135.242 39.513 135.029 38.886 135.029 38.088V32.931H134.084C133.964 32.931 133.862 32.892 133.778 32.814C133.694 32.736 133.652 32.619 133.652 32.463V31.581L135.137 31.338L135.605 28.818C135.635 28.698 135.692 28.605 135.776 28.539C135.86 28.473 135.968 28.44 136.1 28.44H137.252V31.347H141.095L141.572 28.818C141.602 28.698 141.656 28.605 141.734 28.539C141.818 28.473 141.929 28.44 142.067 28.44H143.21V31.347H145.676V32.931H143.21V37.935C143.21 38.223 143.282 38.448 143.426 38.61C143.57 38.772 143.765 38.853 144.011 38.853C144.143 38.853 144.257 38.838 144.353 38.808C144.449 38.772 144.53 38.736 144.596 38.7C144.668 38.664 144.731 38.631 144.785 38.601C144.839 38.565 144.893 38.547 144.947 38.547C145.013 38.547 145.067 38.565 145.109 38.601C145.151 38.631 145.196 38.679 145.244 38.745L145.91 39.825C145.586 40.095 145.214 40.299 144.794 40.437C144.374 40.575 143.939 40.644 143.489 40.644C142.685 40.644 142.067 40.419 141.635 39.969C141.203 39.513 140.987 38.886 140.987 38.088V32.931H137.252V37.935C137.252 38.223 137.321 38.448 137.459 38.61C137.603 38.772 137.798 38.853 138.044 38.853C138.182 38.853 138.296 38.838 138.386 38.808C138.482 38.772 138.563 38.736 138.629 38.7C138.701 38.664 138.764 38.631 138.818 38.601C138.872 38.565 138.926 38.547 138.98 38.547C139.046 38.547 139.1 38.565 139.142 38.601C139.184 38.631 139.229 38.679 139.277 38.745L139.943 39.825C139.619 40.095 139.247 40.299 138.827 40.437C138.407 40.575 137.972 40.644 137.522 40.644ZM151.116 31.122C151.8 31.122 152.421 31.233 152.979 31.455C153.543 31.677 154.023 31.992 154.419 32.4C154.821 32.808 155.13 33.306 155.346 33.894C155.562 34.482 155.67 35.139 155.67 35.865C155.67 36.597 155.562 37.257 155.346 37.845C155.13 38.433 154.821 38.934 154.419 39.348C154.023 39.762 153.543 40.08 152.979 40.302C152.421 40.524 151.8 40.635 151.116 40.635C150.426 40.635 149.799 40.524 149.235 40.302C148.671 40.08 148.188 39.762 147.786 39.348C147.39 38.934 147.081 38.433 146.859 37.845C146.643 37.257 146.535 36.597 146.535 35.865C146.535 35.139 146.643 34.482 146.859 33.894C147.081 33.306 147.39 32.808 147.786 32.4C148.188 31.992 148.671 31.677 149.235 31.455C149.799 31.233 150.426 31.122 151.116 31.122ZM151.116 38.925C151.884 38.925 152.451 38.667 152.817 38.151C153.189 37.635 153.375 36.879 153.375 35.883C153.375 34.887 153.189 34.128 152.817 33.606C152.451 33.084 151.884 32.823 151.116 32.823C150.336 32.823 149.757 33.087 149.379 33.615C149.007 34.137 148.821 34.893 148.821 35.883C148.821 36.873 149.007 37.629 149.379 38.151C149.757 38.667 150.336 38.925 151.116 38.925ZM157.366 40.5V31.266H158.725C159.013 31.266 159.202 31.401 159.292 31.671L159.436 32.355C159.598 32.175 159.766 32.01 159.94 31.86C160.12 31.71 160.309 31.581 160.507 31.473C160.711 31.365 160.927 31.281 161.155 31.221C161.389 31.155 161.644 31.122 161.92 31.122C162.502 31.122 162.979 31.281 163.351 31.599C163.729 31.911 164.011 32.328 164.197 32.85C164.341 32.544 164.521 32.283 164.737 32.067C164.953 31.845 165.19 31.665 165.448 31.527C165.706 31.389 165.979 31.287 166.267 31.221C166.561 31.155 166.855 31.122 167.149 31.122C167.659 31.122 168.112 31.2 168.508 31.356C168.904 31.512 169.237 31.74 169.507 32.04C169.777 32.34 169.981 32.706 170.119 33.138C170.263 33.57 170.335 34.065 170.335 34.623V40.5H168.112V34.623C168.112 34.035 167.983 33.594 167.725 33.3C167.467 33 167.089 32.85 166.591 32.85C166.363 32.85 166.15 32.889 165.952 32.967C165.76 33.045 165.589 33.159 165.439 33.309C165.295 33.453 165.181 33.636 165.097 33.858C165.013 34.08 164.971 34.335 164.971 34.623V40.5H162.739V34.623C162.739 34.005 162.613 33.555 162.361 33.273C162.115 32.991 161.752 32.85 161.272 32.85C160.948 32.85 160.645 32.931 160.363 33.093C160.087 33.249 159.829 33.465 159.589 33.741V40.5H157.366Z"/>
<path fill="#068992" d="M65.379 58.853C65.307 58.979 65.229 59.072 65.145 59.132C65.067 59.186 64.968 59.213 64.848 59.213C64.722 59.213 64.584 59.168 64.434 59.078C64.29 58.982 64.116 58.877 63.912 58.763C63.708 58.649 63.468 58.547 63.192 58.457C62.922 58.361 62.601 58.313 62.229 58.313C61.893 58.313 61.599 58.355 61.347 58.439C61.095 58.517 60.882 58.628 60.708 58.772C60.54 58.916 60.414 59.09 60.33 59.294C60.246 59.492 60.204 59.711 60.204 59.951C60.204 60.257 60.288 60.512 60.456 60.716C60.63 60.92 60.858 61.094 61.14 61.238C61.422 61.382 61.743 61.511 62.103 61.625C62.463 61.739 62.832 61.862 63.21 61.994C63.588 62.12 63.957 62.27 64.317 62.444C64.677 62.612 64.998 62.828 65.28 63.092C65.562 63.35 65.787 63.668 65.955 64.046C66.129 64.424 66.216 64.883 66.216 65.423C66.216 66.011 66.114 66.563 65.91 67.079C65.712 67.589 65.418 68.036 65.028 68.42C64.644 68.798 64.173 69.098 63.615 69.32C63.057 69.536 62.418 69.644 61.698 69.644C61.284 69.644 60.876 69.602 60.474 69.518C60.072 69.44 59.685 69.326 59.313 69.176C58.947 69.026 58.602 68.846 58.278 68.636C57.954 68.426 57.666 68.192 57.414 67.934L58.125 66.773C58.185 66.689 58.263 66.62 58.359 66.566C58.455 66.506 58.557 66.476 58.665 66.476C58.815 66.476 58.977 66.539 59.151 66.665C59.325 66.785 59.532 66.92 59.772 67.07C60.012 67.22 60.291 67.358 60.609 67.484C60.933 67.604 61.32 67.664 61.77 67.664C62.46 67.664 62.994 67.502 63.372 67.178C63.75 66.848 63.939 66.377 63.939 65.765C63.939 65.423 63.852 65.144 63.678 64.928C63.51 64.712 63.285 64.532 63.003 64.388C62.721 64.238 62.4 64.112 62.04 64.01C61.68 63.908 61.314 63.797 60.942 63.677C60.57 63.557 60.204 63.413 59.844 63.245C59.484 63.077 59.163 62.858 58.881 62.588C58.599 62.318 58.371 61.982 58.197 61.58C58.029 61.172 57.945 60.671 57.945 60.077C57.945 59.603 58.038 59.141 58.224 58.691C58.416 58.241 58.692 57.842 59.052 57.494C59.412 57.146 59.856 56.867 60.384 56.657C60.912 56.447 61.518 56.342 62.202 56.342C62.97 56.342 63.678 56.462 64.326 56.702C64.974 56.942 65.526 57.278 65.982 57.71L65.379 58.853ZM74.5568 62.219C74.4908 62.303 74.4248 62.369 74.3588 62.417C74.2988 62.465 74.2088 62.489 74.0888 62.489C73.9748 62.489 73.8638 62.456 73.7558 62.39C73.6478 62.318 73.5188 62.24 73.3688 62.156C73.2188 62.066 73.0388 61.988 72.8288 61.922C72.6248 61.85 72.3698 61.814 72.0638 61.814C71.6738 61.814 71.3318 61.886 71.0378 62.03C70.7438 62.168 70.4978 62.369 70.2998 62.633C70.1078 62.897 69.9638 63.218 69.8678 63.596C69.7718 63.968 69.7238 64.391 69.7238 64.865C69.7238 65.357 69.7748 65.795 69.8768 66.179C69.9848 66.563 70.1378 66.887 70.3358 67.151C70.5338 67.409 70.7738 67.607 71.0558 67.745C71.3378 67.877 71.6558 67.943 72.0098 67.943C72.3638 67.943 72.6488 67.901 72.8648 67.817C73.0868 67.727 73.2728 67.631 73.4228 67.529C73.5728 67.421 73.7018 67.325 73.8098 67.241C73.9238 67.151 74.0498 67.106 74.1878 67.106C74.3678 67.106 74.5028 67.175 74.5928 67.313L75.2318 68.123C74.9858 68.411 74.7188 68.654 74.4308 68.852C74.1428 69.044 73.8428 69.2 73.5308 69.32C73.2248 69.434 72.9068 69.515 72.5768 69.563C72.2528 69.611 71.9288 69.635 71.6048 69.635C71.0348 69.635 70.4978 69.53 69.9938 69.32C69.4898 69.104 69.0488 68.792 68.6708 68.384C68.2928 67.976 67.9928 67.478 67.7708 66.89C67.5548 66.296 67.4468 65.621 67.4468 64.865C67.4468 64.187 67.5428 63.56 67.7348 62.984C67.9328 62.402 68.2208 61.901 68.5988 61.481C68.9768 61.055 69.4448 60.722 70.0028 60.482C70.5608 60.242 71.2028 60.122 71.9287 60.122C72.6188 60.122 73.2218 60.233 73.7378 60.455C74.2598 60.677 74.7278 60.995 75.1418 61.409L74.5568 62.219ZM78.7223 61.868C79.0103 61.316 79.3523 60.884 79.7483 60.572C80.1443 60.254 80.6123 60.095 81.1523 60.095C81.5783 60.095 81.9203 60.188 82.1783 60.374L82.0343 62.039C82.0043 62.147 81.9593 62.225 81.8993 62.273C81.8453 62.315 81.7703 62.336 81.6743 62.336C81.5843 62.336 81.4493 62.321 81.2693 62.291C81.0953 62.261 80.9243 62.246 80.7563 62.246C80.5103 62.246 80.2913 62.282 80.0993 62.354C79.9073 62.426 79.7333 62.531 79.5773 62.669C79.4273 62.801 79.2923 62.963 79.1723 63.155C79.0583 63.347 78.9503 63.566 78.8483 63.812V69.5H76.6253V60.266H77.9303C78.1583 60.266 78.3173 60.308 78.4073 60.392C78.4973 60.47 78.5573 60.614 78.5873 60.824L78.7223 61.868ZM87.1625 60.122C87.8465 60.122 88.4675 60.233 89.0255 60.455C89.5895 60.677 90.0695 60.992 90.4655 61.4C90.8675 61.808 91.1765 62.306 91.3925 62.894C91.6085 63.482 91.7165 64.139 91.7165 64.865C91.7165 65.597 91.6085 66.257 91.3925 66.845C91.1765 67.433 90.8675 67.934 90.4655 68.348C90.0695 68.762 89.5895 69.08 89.0255 69.302C88.4675 69.524 87.8465 69.635 87.1625 69.635C86.4725 69.635 85.8455 69.524 85.2815 69.302C84.7175 69.08 84.2345 68.762 83.8325 68.348C83.4365 67.934 83.1275 67.433 82.9055 66.845C82.6895 66.257 82.5815 65.597 82.5815 64.865C82.5815 64.139 82.6895 63.482 82.9055 62.894C83.1275 62.306 83.4365 61.808 83.8325 61.4C84.2345 60.992 84.7175 60.677 85.2815 60.455C85.8455 60.233 86.4725 60.122 87.1625 60.122ZM87.1625 67.925C87.9305 67.925 88.4975 67.667 88.8635 67.151C89.2355 66.635 89.4215 65.879 89.4215 64.883C89.4215 63.887 89.2355 63.128 88.8635 62.606C88.4975 62.084 87.9305 61.823 87.1625 61.823C86.3825 61.823 85.8035 62.087 85.4255 62.615C85.0535 63.137 84.8675 63.893 84.8675 64.883C84.8675 65.873 85.0535 66.629 85.4255 67.151C85.8035 67.667 86.3825 67.925 87.1625 67.925ZM95.6625 56.126V69.5H93.4395V56.126H95.6625ZM100.127 56.126V69.5H97.9043V56.126H100.127ZM109.797 69.644C108.993 69.644 108.375 69.419 107.943 68.969C107.517 68.513 107.304 67.886 107.304 67.088V61.931H106.359C106.239 61.931 106.137 61.892 106.053 61.814C105.969 61.736 105.927 61.619 105.927 61.463V60.581L107.412 60.338L107.88 57.818C107.91 57.698 107.967 57.605 108.051 57.539C108.135 57.473 108.243 57.44 108.375 57.44H109.527V60.347H111.993V61.931H109.527V66.935C109.527 67.223 109.596 67.448 109.734 67.61C109.878 67.772 110.073 67.853 110.319 67.853C110.457 67.853 110.571 67.838 110.661 67.808C110.757 67.772 110.838 67.736 110.904 67.7C110.976 67.664 111.039 67.631 111.093 67.601C111.147 67.565 111.201 67.547 111.255 67.547C111.321 67.547 111.375 67.565 111.417 67.601C111.459 67.631 111.504 67.679 111.552 67.745L112.218 68.825C111.894 69.095 111.522 69.299 111.102 69.437C110.682 69.575 110.247 69.644 109.797 69.644ZM117.432 60.122C118.116 60.122 118.737 60.233 119.295 60.455C119.859 60.677 120.339 60.992 120.735 61.4C121.137 61.808 121.446 62.306 121.662 62.894C121.878 63.482 121.986 64.139 121.986 64.865C121.986 65.597 121.878 66.257 121.662 66.845C121.446 67.433 121.137 67.934 120.735 68.348C120.339 68.762 119.859 69.08 119.295 69.302C118.737 69.524 118.116 69.635 117.432 69.635C116.742 69.635 116.115 69.524 115.551 69.302C114.987 69.08 114.504 68.762 114.102 68.348C113.706 67.934 113.397 67.433 113.175 66.845C112.959 66.257 112.851 65.597 112.851 64.865C112.851 64.139 112.959 63.482 113.175 62.894C113.397 62.306 113.706 61.808 114.102 61.4C114.504 60.992 114.987 60.677 115.551 60.455C116.115 60.233 116.742 60.122 117.432 60.122ZM117.432 67.925C118.2 67.925 118.767 67.667 119.133 67.151C119.505 66.635 119.691 65.879 119.691 64.883C119.691 63.887 119.505 63.128 119.133 62.606C118.767 62.084 118.2 61.823 117.432 61.823C116.652 61.823 116.073 62.087 115.695 62.615C115.323 63.137 115.137 63.893 115.137 64.883C115.137 65.873 115.323 66.629 115.695 67.151C116.073 67.667 116.652 67.925 117.432 67.925ZM136.955 58.475H133.031V69.5H130.61V58.475H126.686V56.486H136.955V58.475ZM140.231 60.122C140.915 60.122 141.536 60.233 142.094 60.455C142.658 60.677 143.138 60.992 143.534 61.4C143.936 61.808 144.245 62.306 144.461 62.894C144.677 63.482 144.785 64.139 144.785 64.865C144.785 65.597 144.677 66.257 144.461 66.845C144.245 67.433 143.936 67.934 143.534 68.348C143.138 68.762 142.658 69.08 142.094 69.302C141.536 69.524 140.915 69.635 140.231 69.635C139.541 69.635 138.914 69.524 138.35 69.302C137.786 69.08 137.303 68.762 136.901 68.348C136.505 67.934 136.196 67.433 135.974 66.845C135.758 66.257 135.65 65.597 135.65 64.865C135.65 64.139 135.758 63.482 135.974 62.894C136.196 62.306 136.505 61.808 136.901 61.4C137.303 60.992 137.786 60.677 138.35 60.455C138.914 60.233 139.541 60.122 140.231 60.122ZM140.231 67.925C140.999 67.925 141.566 67.667 141.932 67.151C142.304 66.635 142.49 65.879 142.49 64.883C142.49 63.887 142.304 63.128 141.932 62.606C141.566 62.084 140.999 61.823 140.231 61.823C139.451 61.823 138.872 62.087 138.494 62.615C138.122 63.137 137.936 63.893 137.936 64.883C137.936 65.873 138.122 66.629 138.494 67.151C138.872 67.667 139.451 67.925 140.231 67.925ZM148.704 67.106C148.956 67.412 149.229 67.628 149.523 67.754C149.823 67.88 150.147 67.943 150.495 67.943C150.831 67.943 151.134 67.88 151.404 67.754C151.674 67.628 151.902 67.436 152.088 67.178C152.28 66.92 152.427 66.596 152.529 66.206C152.631 65.81 152.682 65.345 152.682 64.811C152.682 64.271 152.637 63.815 152.547 63.443C152.463 63.065 152.34 62.759 152.178 62.525C152.016 62.291 151.818 62.12 151.584 62.012C151.356 61.904 151.095 61.85 150.801 61.85C150.339 61.85 149.946 61.949 149.622 62.147C149.298 62.339 148.992 62.612 148.704 62.966V67.106ZM148.587 61.526C148.965 61.1 149.394 60.755 149.874 60.491C150.354 60.227 150.918 60.095 151.566 60.095C152.07 60.095 152.529 60.2 152.943 60.41C153.363 60.62 153.723 60.926 154.023 61.328C154.329 61.724 154.563 62.216 154.725 62.804C154.893 63.386 154.977 64.055 154.977 64.811C154.977 65.501 154.884 66.14 154.698 66.728C154.512 67.316 154.245 67.826 153.897 68.258C153.555 68.69 153.138 69.029 152.646 69.275C152.16 69.515 151.614 69.635 151.008 69.635C150.492 69.635 150.051 69.557 149.685 69.401C149.319 69.239 148.992 69.017 148.704 68.735V72.515H146.481V60.266H147.84C148.128 60.266 148.317 60.401 148.407 60.671L148.587 61.526Z"/>
</g>
<rect stroke-width="2" stroke-opacity="0.2" stroke="url(#paint0_linear_1099_1950)" rx="11" height="45" width="181" y="11" x="16"/>
</g>
<defs>
<filter color-interpolation-filters="sRGB" filterUnits="userSpaceOnUse" height="77" width="213" y="0" x="0" id="filter0_d_1099_1950">
<feFlood result="BackgroundImageFix" flood-opacity="0"/>
<feColorMatrix result="hardAlpha" values="0 0 0 0 0 0 0 0 0 0 0 0 0 0 0 0 0 0 127 0" type="matrix" in="SourceAlpha"/>
<feMorphology result="effect1_dropShadow_1099_1950" in="SourceAlpha" operator="erode" radius="10"/>
<feOffset dy="5"/>
<feGaussianBlur stdDeviation="12.5"/>
<feComposite operator="out" in2="hardAlpha"/>
<feColorMatrix values="0 0 0 0 0.556863 0 0 0 0 0.427451 0 0 0 0 0.913725 0 0 0 1 0" type="matrix"/>
<feBlend result="effect1_dropShadow_1099_1950" in2="BackgroundImageFix" mode="normal"/>
<feBlend result="shape" in2="effect1_dropShadow_1099_1950" in="SourceGraphic" mode="normal"/>
</filter>
<linearGradient gradientUnits="userSpaceOnUse" y2="106.509" x2="140.045" y1="-30.6125" x1="98.4932" id="paint0_linear_1099_1950">
<stop stop-color="#068992" offset="0.404801"/>
</linearGradient>
<clipPath id="clip0_1099_1950">
<rect fill="white" rx="12" height="47" width="183" y="10" x="15"/>
</clipPath>
</defs>
</svg>