<svg width="347" height="53" viewBox="0 0 347 53" fill="none" xmlns="http://www.w3.org/2000/svg">
<rect x="0.0560303" y="0.547729" width="346.888" height="52.152" rx="21.0229" fill="#068992"/>
<path d="M150.333 24.436C150.285 23.9557 150.081 23.5826 149.72 23.3166C149.359 23.0506 148.868 22.9176 148.249 22.9176C147.828 22.9176 147.473 22.9772 147.183 23.0963C146.893 23.2114 146.671 23.3722 146.516 23.5786C146.365 23.785 146.29 24.0192 146.29 24.2812C146.282 24.4996 146.328 24.6901 146.427 24.8529C146.53 25.0156 146.671 25.1565 146.85 25.2756C147.028 25.3907 147.235 25.492 147.469 25.5793C147.703 25.6627 147.953 25.7341 148.219 25.7937L149.315 26.0557C149.847 26.1748 150.335 26.3336 150.78 26.532C151.224 26.7305 151.609 26.9747 151.935 27.2644C152.26 27.5542 152.512 27.8956 152.691 28.2886C152.874 28.6816 152.967 29.1322 152.971 29.6403C152.967 30.3866 152.776 31.0337 152.399 31.5815C152.026 32.1253 151.486 32.5481 150.78 32.8498C150.077 33.1475 149.23 33.2964 148.237 33.2964C147.253 33.2964 146.395 33.1456 145.665 32.8439C144.938 32.5422 144.371 32.0956 143.962 31.5041C143.557 30.9086 143.344 30.1722 143.325 29.2949H145.82C145.847 29.7038 145.964 30.0452 146.171 30.3191C146.381 30.5891 146.661 30.7935 147.01 30.9324C147.364 31.0674 147.763 31.1349 148.207 31.1349C148.644 31.1349 149.023 31.0714 149.345 30.9444C149.67 30.8173 149.922 30.6407 150.101 30.4144C150.28 30.1881 150.369 29.9281 150.369 29.6344C150.369 29.3604 150.287 29.1302 150.125 28.9436C149.966 28.7571 149.732 28.5983 149.422 28.4673C149.116 28.3363 148.741 28.2172 148.297 28.11L146.969 27.7765C145.941 27.5264 145.129 27.1354 144.533 26.6035C143.938 26.0716 143.642 25.355 143.646 24.4539C143.642 23.7155 143.839 23.0705 144.236 22.5187C144.637 21.9669 145.186 21.5362 145.885 21.2265C146.584 20.9169 147.378 20.7621 148.267 20.7621C149.172 20.7621 149.962 20.9169 150.637 21.2265C151.316 21.5362 151.844 21.9669 152.221 22.5187C152.598 23.0705 152.792 23.7096 152.804 24.436H150.333ZM157.284 20.9288V33.1237H154.705V20.9288H157.284ZM167.491 24.8707C167.408 24.5809 167.291 24.3249 167.14 24.1026C166.989 23.8763 166.804 23.6858 166.586 23.5309C166.372 23.3722 166.126 23.2511 165.848 23.1677C165.574 23.0844 165.27 23.0427 164.937 23.0427C164.313 23.0427 163.766 23.1975 163.293 23.5071C162.825 23.8168 162.46 24.2673 162.198 24.8588C161.936 25.4463 161.805 26.1648 161.805 27.0144C161.805 27.8639 161.934 28.5864 162.192 29.1818C162.45 29.7773 162.815 30.2318 163.287 30.5454C163.76 30.855 164.317 31.0099 164.96 31.0099C165.544 31.0099 166.042 30.9066 166.455 30.7002C166.872 30.4898 167.189 30.1941 167.408 29.813C167.63 29.4319 167.741 28.9813 167.741 28.4613L168.265 28.5387H165.121V26.5975H170.224V28.1338C170.224 29.2056 169.998 30.1266 169.545 30.8967C169.093 31.6629 168.47 32.2544 167.676 32.6712C166.882 33.084 165.973 33.2904 164.949 33.2904C163.805 33.2904 162.801 33.0384 161.936 32.5342C161.07 32.0261 160.395 31.3056 159.911 30.3727C159.431 29.4359 159.19 28.3244 159.19 27.0382C159.19 26.0497 159.333 25.1684 159.619 24.3944C159.909 23.6163 160.314 22.9573 160.834 22.4174C161.354 21.8776 161.959 21.4667 162.65 21.1849C163.341 20.903 164.089 20.7621 164.895 20.7621C165.586 20.7621 166.229 20.8633 166.824 21.0658C167.42 21.2642 167.948 21.5461 168.408 21.9113C168.873 22.2765 169.252 22.7112 169.545 23.2154C169.839 23.7155 170.028 24.2673 170.111 24.8707H167.491ZM182.361 20.9288V33.1237H180.134L174.829 25.4483H174.739V33.1237H172.161V20.9288H174.424L179.688 28.5983H179.795V20.9288H182.361ZM190.951 20.9288V33.1237H188.372V20.9288H190.951ZM203.272 20.9288V33.1237H201.045L195.739 25.4483H195.65V33.1237H193.072V20.9288H195.335L200.598 28.5983H200.706V20.9288H203.272Z" fill="white"/>
</svg>
