<svg width="218" height="22" viewBox="0 0 218 22" fill="none" xmlns="http://www.w3.org/2000/svg">
<path d="M6.14736 21.5637L0.0409697 0.222599H4.96984L8.50238 15.0509H8.67953L12.5768 0.222599H16.7971L20.6839 15.0822H20.8715L24.404 0.222599H29.3329L23.2265 21.5637H18.829L14.7651 7.6107H14.5983L10.5448 21.5637H6.14736ZM37.2394 21.8763C35.593 21.8763 34.1758 21.5428 32.9878 20.8759C31.8069 20.2021 30.8968 19.2503 30.2577 18.0207C29.6186 16.7842 29.299 15.3218 29.299 13.6337C29.299 11.9873 29.6186 10.5423 30.2577 9.29882C30.8968 8.05531 31.7964 7.0862 32.9566 6.39151C34.1237 5.69681 35.4922 5.34946 37.0622 5.34946C38.1182 5.34946 39.1012 5.51966 40.0112 5.86007C40.9282 6.19352 41.7271 6.69717 42.4079 7.37103C43.0957 8.04489 43.6306 8.89242 44.0127 9.91362C44.3948 10.9279 44.5858 12.1158 44.5858 13.4774V14.6966H31.0705V11.9456H40.4072C40.4072 11.3065 40.2683 10.7403 39.9904 10.2471C39.7125 9.75384 39.327 9.36828 38.8337 9.09041C38.3474 8.80558 37.7813 8.66317 37.1352 8.66317C36.4613 8.66317 35.8639 8.81947 35.3429 9.13209C34.8288 9.43775 34.4259 9.8511 34.1341 10.3721C33.8423 10.8862 33.693 11.4593 33.686 12.0915V14.707C33.686 15.499 33.8319 16.1833 34.1237 16.7599C34.4224 17.3365 34.8427 17.7811 35.3845 18.0937C35.9264 18.4063 36.569 18.5626 37.3123 18.5626C37.8056 18.5626 38.2571 18.4931 38.667 18.3542C39.0769 18.2153 39.4277 18.0068 39.7195 17.729C40.0112 17.4511 40.2335 17.1107 40.3864 16.7078L44.492 16.9787C44.2836 17.9652 43.8564 18.8266 43.2103 19.563C42.5712 20.2924 41.7445 20.862 40.7302 21.2719C39.7229 21.6748 38.5593 21.8763 37.2394 21.8763ZM51.9218 0.222599V21.5637H47.4827V0.222599H51.9218ZM62.7096 21.8763C61.0701 21.8763 59.6599 21.529 58.4789 20.8343C57.3048 20.1326 56.4017 19.16 55.7696 17.9165C55.1443 16.673 54.8317 15.2419 54.8317 13.6233C54.8317 11.9838 55.1478 10.5458 55.78 9.30924C56.4191 8.06573 57.3257 7.09663 58.4997 6.40193C59.6738 5.70028 61.0701 5.34946 62.6887 5.34946C64.0851 5.34946 65.3078 5.60303 66.3567 6.11016C67.4057 6.61728 68.2359 7.32935 68.8472 8.24635C69.4586 9.16335 69.7955 10.2401 69.858 11.4767H65.669C65.5509 10.6778 65.2383 10.0352 64.7312 9.54891C64.231 9.05567 63.5745 8.80905 62.7617 8.80905C62.0739 8.80905 61.473 8.99662 60.959 9.37176C60.4518 9.73995 60.0558 10.2783 59.771 10.9869C59.4862 11.6955 59.3438 12.5535 59.3438 13.5608C59.3438 14.582 59.4827 15.4504 59.7606 16.1659C60.0454 16.8814 60.4449 17.4268 60.959 17.8019C61.473 18.177 62.0739 18.3646 62.7617 18.3646C63.2688 18.3646 63.7238 18.2604 64.1268 18.052C64.5366 17.8436 64.8736 17.5414 65.1376 17.1454C65.4085 16.7425 65.5856 16.2597 65.669 15.697H69.858C69.7885 16.9196 69.4551 17.9964 68.8577 18.9273C68.2672 19.8513 67.4509 20.5737 66.4088 21.0948C65.3668 21.6158 64.1337 21.8763 62.7096 21.8763ZM79.932 21.8763C78.3133 21.8763 76.9135 21.5324 75.7325 20.8447C74.5585 20.15 73.6519 19.1844 73.0128 17.9478C72.3737 16.7043 72.0541 15.2628 72.0541 13.6233C72.0541 11.9699 72.3737 10.525 73.0128 9.28839C73.6519 8.04489 74.5585 7.07926 75.7325 6.39151C76.9135 5.69681 78.3133 5.34946 79.932 5.34946C81.5506 5.34946 82.947 5.69681 84.121 6.39151C85.302 7.07926 86.212 8.04489 86.8512 9.28839C87.4903 10.525 87.8098 11.9699 87.8098 13.6233C87.8098 15.2628 87.4903 16.7043 86.8512 17.9478C86.212 19.1844 85.302 20.15 84.121 20.8447C82.947 21.5324 81.5506 21.8763 79.932 21.8763ZM79.9528 18.4376C80.6892 18.4376 81.304 18.2291 81.7972 17.8123C82.2905 17.3886 82.6621 16.812 82.9122 16.0825C83.1693 15.3531 83.2978 14.5229 83.2978 13.592C83.2978 12.6611 83.1693 11.831 82.9122 11.1016C82.6621 10.3721 82.2905 9.79552 81.7972 9.37176C81.304 8.94799 80.6892 8.73611 79.9528 8.73611C79.2095 8.73611 78.5843 8.94799 78.0771 9.37176C77.577 9.79552 77.1984 10.3721 76.9413 11.1016C76.6912 11.831 76.5662 12.6611 76.5662 13.592C76.5662 14.5229 76.6912 15.3531 76.9413 16.0825C77.1984 16.812 77.577 17.3886 78.0771 17.8123C78.5843 18.2291 79.2095 18.4376 79.9528 18.4376ZM90.6963 21.5637V5.55787H94.927V8.38182H95.1146C95.448 7.44397 96.0038 6.70412 96.7819 6.16226C97.5599 5.62039 98.4908 5.34946 99.5745 5.34946C100.672 5.34946 101.607 5.62387 102.378 6.17268C103.149 6.71454 103.663 7.45092 103.92 8.38182H104.087C104.413 7.46482 105.004 6.73191 105.858 6.1831C106.719 5.62734 107.737 5.34946 108.911 5.34946C110.405 5.34946 111.617 5.82533 112.548 6.77707C113.486 7.72185 113.955 9.06262 113.955 10.7994V21.5637H109.526V11.6747C109.526 10.7855 109.29 10.1186 108.817 9.67395C108.345 9.22935 107.755 9.00704 107.046 9.00704C106.24 9.00704 105.611 9.26408 105.16 9.77816C104.708 10.2853 104.483 10.9557 104.483 11.7893V21.5637H100.179V11.5809C100.179 10.7959 99.9531 10.1707 99.5016 9.70521C99.057 9.23977 98.47 9.00704 97.7405 9.00704C97.2473 9.00704 96.8027 9.13209 96.4067 9.38218C96.0177 9.62532 95.7086 9.9692 95.4793 10.4138C95.2501 10.8515 95.1354 11.3655 95.1354 11.956V21.5637H90.6963ZM124.756 21.8763C123.109 21.8763 121.692 21.5428 120.504 20.8759C119.323 20.2021 118.413 19.2503 117.774 18.0207C117.135 16.7842 116.815 15.3218 116.815 13.6337C116.815 11.9873 117.135 10.5423 117.774 9.29882C118.413 8.05531 119.313 7.0862 120.473 6.39151C121.64 5.69681 123.008 5.34946 124.578 5.34946C125.634 5.34946 126.617 5.51966 127.527 5.86007C128.444 6.19352 129.243 6.69717 129.924 7.37103C130.612 8.04489 131.147 8.89242 131.529 9.91362C131.911 10.9279 132.102 12.1158 132.102 13.4774V14.6966H118.587V11.9456H127.923C127.923 11.3065 127.784 10.7403 127.507 10.2471C127.229 9.75384 126.843 9.36828 126.35 9.09041C125.864 8.80558 125.297 8.66317 124.651 8.66317C123.978 8.66317 123.38 8.81947 122.859 9.13209C122.345 9.43775 121.942 9.8511 121.65 10.3721C121.359 10.8862 121.209 11.4593 121.202 12.0915V14.707C121.202 15.499 121.348 16.1833 121.64 16.7599C121.939 17.3365 122.359 17.7811 122.901 18.0937C123.443 18.4063 124.085 18.5626 124.829 18.5626C125.322 18.5626 125.773 18.4931 126.183 18.3542C126.593 18.2153 126.944 18.0068 127.236 17.729C127.527 17.4511 127.75 17.1107 127.903 16.7078L132.008 16.9787C131.8 17.9652 131.373 18.8266 130.726 19.563C130.087 20.2924 129.261 20.862 128.246 21.2719C127.239 21.6748 126.075 21.8763 124.756 21.8763ZM141.874 21.5637V0.222599H146.313V8.24635H146.448C146.643 7.81564 146.924 7.37798 147.292 6.93337C147.668 6.48182 148.154 6.10668 148.751 5.80796C149.356 5.5023 150.106 5.34946 151.002 5.34946C152.169 5.34946 153.246 5.65513 154.232 6.26646C155.219 6.87085 156.007 7.78438 156.598 9.00704C157.188 10.2228 157.484 11.7476 157.484 13.5816C157.484 15.367 157.195 16.8745 156.619 18.1041C156.049 19.3268 155.271 20.2542 154.285 20.8864C153.305 21.5116 152.207 21.8242 150.992 21.8242C150.13 21.8242 149.397 21.6818 148.793 21.397C148.196 21.1121 147.706 20.7544 147.324 20.3237C146.942 19.886 146.65 19.4449 146.448 19.0003H146.25V21.5637H141.874ZM146.219 13.5608C146.219 14.5125 146.351 15.3427 146.615 16.0513C146.879 16.7599 147.261 17.3121 147.761 17.7081C148.262 18.0972 148.869 18.2917 149.585 18.2917C150.307 18.2917 150.919 18.0937 151.419 17.6977C151.919 17.2948 152.298 16.739 152.555 16.0304C152.819 15.3149 152.951 14.4917 152.951 13.5608C152.951 12.6368 152.822 11.824 152.565 11.1224C152.308 10.4208 151.93 9.87194 151.429 9.47596C150.929 9.07999 150.314 8.882 149.585 8.882C148.862 8.882 148.251 9.07304 147.751 9.45512C147.258 9.8372 146.879 10.3791 146.615 11.0807C146.351 11.7824 146.219 12.609 146.219 13.5608ZM165.01 21.8659C163.989 21.8659 163.079 21.6887 162.28 21.3344C161.481 20.9732 160.849 20.4418 160.383 19.7401C159.925 19.0315 159.695 18.1493 159.695 17.0933C159.695 16.2041 159.859 15.4573 160.185 14.8529C160.512 14.2485 160.956 13.7622 161.519 13.3941C162.082 13.0259 162.721 12.748 163.436 12.5604C164.159 12.3728 164.916 12.2409 165.708 12.1644C166.639 12.0672 167.389 11.9769 167.959 11.8935C168.528 11.8032 168.942 11.6712 169.199 11.4975C169.456 11.3239 169.584 11.0668 169.584 10.7264V10.6639C169.584 10.0039 169.376 9.49333 168.959 9.13209C168.549 8.77084 167.966 8.59022 167.209 8.59022C166.41 8.59022 165.774 8.76737 165.302 9.12167C164.829 9.46902 164.517 9.90667 164.364 10.4346L160.258 10.1012C160.466 9.12861 160.876 8.28803 161.488 7.57944C162.099 6.8639 162.888 6.31509 163.853 5.93301C164.826 5.54398 165.951 5.34946 167.229 5.34946C168.119 5.34946 168.97 5.45367 169.782 5.66208C170.602 5.87049 171.328 6.19352 171.96 6.63118C172.599 7.06884 173.103 7.63154 173.471 8.31929C173.839 9.0001 174.023 9.81636 174.023 10.7681V21.5637H169.814V19.3441H169.689C169.432 19.8443 169.088 20.2854 168.657 20.6675C168.226 21.0427 167.709 21.3379 167.104 21.5533C166.5 21.7617 165.802 21.8659 165.01 21.8659ZM166.281 18.8023C166.934 18.8023 167.511 18.6738 168.011 18.4167C168.511 18.1527 168.904 17.7984 169.188 17.3538C169.473 16.9092 169.616 16.4056 169.616 15.8429V14.1443C169.477 14.2346 169.286 14.318 169.043 14.3944C168.806 14.4639 168.539 14.5299 168.24 14.5924C167.941 14.648 167.643 14.7001 167.344 14.7487C167.045 14.7904 166.774 14.8286 166.531 14.8633C166.01 14.9398 165.555 15.0613 165.166 15.2281C164.777 15.3948 164.475 15.6206 164.26 15.9054C164.044 16.1833 163.936 16.5306 163.936 16.9474C163.936 17.5518 164.155 18.0138 164.593 18.3333C165.038 18.646 165.6 18.8023 166.281 18.8023ZM184.699 21.8763C183.06 21.8763 181.65 21.529 180.469 20.8343C179.294 20.1326 178.391 19.16 177.759 17.9165C177.134 16.673 176.821 15.2419 176.821 13.6233C176.821 11.9838 177.137 10.5458 177.77 9.30924C178.409 8.06573 179.315 7.09663 180.489 6.40193C181.663 5.70028 183.06 5.34946 184.678 5.34946C186.075 5.34946 187.297 5.60303 188.346 6.11016C189.395 6.61728 190.226 7.32935 190.837 8.24635C191.448 9.16335 191.785 10.2401 191.848 11.4767H187.659C187.541 10.6778 187.228 10.0352 186.721 9.54891C186.221 9.05567 185.564 8.80905 184.751 8.80905C184.064 8.80905 183.463 8.99662 182.949 9.37176C182.441 9.73995 182.045 10.2783 181.761 10.9869C181.476 11.6955 181.333 12.5535 181.333 13.5608C181.333 14.582 181.472 15.4504 181.75 16.1659C182.035 16.8814 182.435 17.4268 182.949 17.8019C183.463 18.177 184.064 18.3646 184.751 18.3646C185.258 18.3646 185.713 18.2604 186.116 18.052C186.526 17.8436 186.863 17.5414 187.127 17.1454C187.398 16.7425 187.575 16.2597 187.659 15.697H191.848C191.778 16.9196 191.445 17.9964 190.847 18.9273C190.257 19.8513 189.441 20.5737 188.398 21.0948C187.356 21.6158 186.123 21.8763 184.699 21.8763ZM198.712 16.9578L198.723 11.633H199.369L204.495 5.55787H209.591L202.703 13.6025H201.651L198.712 16.9578ZM194.69 21.5637V0.222599H199.129V21.5637H194.69ZM204.693 21.5637L199.983 14.5924L202.943 11.4558L209.893 21.5637H204.693ZM217.073 0.222599L216.667 15.1655H212.853L212.436 0.222599H217.073ZM214.76 21.8346C214.072 21.8346 213.481 21.5915 212.988 21.1052C212.495 20.612 212.252 20.0215 212.259 19.3337C212.252 18.6529 212.495 18.0694 212.988 17.5831C213.481 17.0968 214.072 16.8536 214.76 16.8536C215.42 16.8536 216 17.0968 216.5 17.5831C217 18.0694 217.254 18.6529 217.261 19.3337C217.254 19.7922 217.132 20.2125 216.896 20.5946C216.667 20.9697 216.364 21.2719 215.989 21.5012C215.614 21.7235 215.204 21.8346 214.76 21.8346Z" fill="#32343D"/>
</svg>
