<svg width="144" height="150" viewBox="0 0 144 150" fill="none" xmlns="http://www.w3.org/2000/svg">
<g filter="url(#filter0_bdddd_884_2147)">
<path d="M84.531 17.912C86.9969 18.1903 89.1668 19.7651 90.3081 22.1046C91.6266 24.8074 90.2895 30.1102 87.6154 40.7156L85.3749 49.6016C84.3043 53.8475 83.769 55.9704 84.1377 57.8135C84.4619 59.4348 85.2609 60.9053 86.42 62.0144C87.7377 63.2752 89.7354 63.844 93.7308 64.9817L96.3231 65.7199C104.007 67.9077 107.848 69.0016 109.384 71.2285C110.72 73.1648 111.148 75.6441 110.546 77.9582C108.119 87.2932 65.5949 120.334 56.2179 119.208C53.7637 118.914 51.6104 117.335 50.48 115.001C49.1743 112.306 50.4939 107.072 53.1332 96.6052L55.1363 88.661C56.2069 84.4151 56.7422 82.2922 56.3735 80.4491C56.0492 78.8278 55.2503 77.3573 54.0912 76.2482C52.7735 74.9874 50.7758 74.4185 46.7803 73.2808L43.8958 72.4595C36.293 70.2946 32.4917 69.2122 30.9568 67.0001C29.622 65.0763 29.1849 62.6109 29.7694 60.3028C32.2012 50.6997 75.2404 16.8636 84.531 17.912Z" fill="url(#paint0_linear_884_2147)" shape-rendering="crispEdges"/>
<path d="M84.531 17.912C86.9969 18.1903 89.1668 19.7651 90.3081 22.1046C91.6266 24.8074 90.2895 30.1102 87.6154 40.7156L85.3749 49.6016C84.3043 53.8475 83.769 55.9704 84.1377 57.8135C84.4619 59.4348 85.2609 60.9053 86.42 62.0144C87.7377 63.2752 89.7354 63.844 93.7308 64.9817L96.3231 65.7199C104.007 67.9077 107.848 69.0016 109.384 71.2285C110.72 73.1648 111.148 75.6441 110.546 77.9582C108.119 87.2932 65.5949 120.334 56.2179 119.208C53.7637 118.914 51.6104 117.335 50.48 115.001C49.1743 112.306 50.4939 107.072 53.1332 96.6052L55.1363 88.661C56.2069 84.4151 56.7422 82.2922 56.3735 80.4491C56.0492 78.8278 55.2503 77.3573 54.0912 76.2482C52.7735 74.9874 50.7758 74.4185 46.7803 73.2808L43.8958 72.4595C36.293 70.2946 32.4917 69.2122 30.9568 67.0001C29.622 65.0763 29.1849 62.6109 29.7694 60.3028C32.2012 50.6997 75.2404 16.8636 84.531 17.912Z" fill="url(#paint1_radial_884_2147)" fill-opacity="0.2" style="mix-blend-mode:plus-lighter" shape-rendering="crispEdges"/>
<path d="M84.531 17.912C86.9969 18.1903 89.1668 19.7651 90.3081 22.1046C91.6266 24.8074 90.2895 30.1102 87.6154 40.7156L85.3749 49.6016C84.3043 53.8475 83.769 55.9704 84.1377 57.8135C84.4619 59.4348 85.2609 60.9053 86.42 62.0144C87.7377 63.2752 89.7354 63.844 93.7308 64.9817L96.3231 65.7199C104.007 67.9077 107.848 69.0016 109.384 71.2285C110.72 73.1648 111.148 75.6441 110.546 77.9582C108.119 87.2932 65.5949 120.334 56.2179 119.208C53.7637 118.914 51.6104 117.335 50.48 115.001C49.1743 112.306 50.4939 107.072 53.1332 96.6052L55.1363 88.661C56.2069 84.4151 56.7422 82.2922 56.3735 80.4491C56.0492 78.8278 55.2503 77.3573 54.0912 76.2482C52.7735 74.9874 50.7758 74.4185 46.7803 73.2808L43.8958 72.4595C36.293 70.2946 32.4917 69.2122 30.9568 67.0001C29.622 65.0763 29.1849 62.6109 29.7694 60.3028C32.2012 50.6997 75.2404 16.8636 84.531 17.912Z" fill="url(#paint2_radial_884_2147)" fill-opacity="0.15" style="mix-blend-mode:plus-lighter" shape-rendering="crispEdges"/>
<path d="M84.531 17.912C86.9969 18.1903 89.1668 19.7651 90.3081 22.1046C91.6266 24.8074 90.2895 30.1102 87.6154 40.7156L85.3749 49.6016C84.3043 53.8475 83.769 55.9704 84.1377 57.8135C84.4619 59.4348 85.2609 60.9053 86.42 62.0144C87.7377 63.2752 89.7354 63.844 93.7308 64.9817L96.3231 65.7199C104.007 67.9077 107.848 69.0016 109.384 71.2285C110.72 73.1648 111.148 75.6441 110.546 77.9582C108.119 87.2932 65.5949 120.334 56.2179 119.208C53.7637 118.914 51.6104 117.335 50.48 115.001C49.1743 112.306 50.4939 107.072 53.1332 96.6052L55.1363 88.661C56.2069 84.4151 56.7422 82.2922 56.3735 80.4491C56.0492 78.8278 55.2503 77.3573 54.0912 76.2482C52.7735 74.9874 50.7758 74.4185 46.7803 73.2808L43.8958 72.4595C36.293 70.2946 32.4917 69.2122 30.9568 67.0001C29.622 65.0763 29.1849 62.6109 29.7694 60.3028C32.2012 50.6997 75.2404 16.8636 84.531 17.912Z" stroke="url(#paint3_linear_884_2147)" stroke-opacity="0.6" stroke-width="0.465838" stroke-linecap="round" stroke-linejoin="round" shape-rendering="crispEdges"/>
</g>
<rect x="11.627" y="10.7329" width="116.46" height="116.46" rx="58.2298" stroke="white" stroke-opacity="0.5" stroke-width="0.465838" stroke-linecap="round" stroke-dasharray="0.23 2.8"/>
<path d="M51.0708 75.6074C51.3356 75.0769 51.7716 75.0902 52.3429 75.3641C53.6635 76.0036 54.9602 76.6688 56.3041 77.2703C61.4473 79.5653 66.8373 81.2693 72.3697 82.3491C74.9858 82.8656 77.6274 83.246 80.2835 83.4888C84.2172 83.8531 88.1738 83.908 92.1165 83.6529C94.2771 83.5159 96.4326 83.2553 98.5727 82.9211C105.521 81.8294 112.281 79.7726 118.654 76.811C119.009 76.6481 119.377 76.5342 119.779 76.6169C120.621 76.8056 120.943 77.6835 120.358 78.3136C120.002 78.6671 119.615 78.9891 119.202 79.2762C115.492 82.0377 111.405 84.0966 107.063 85.6957C104.056 86.7952 100.964 87.6489 97.8175 88.2483C95.6415 88.6704 93.4414 88.9579 91.2297 89.1092C91.1257 89.1197 91.0224 89.1363 90.9204 89.1589L88.298 89.2651C88.1946 89.2508 88.0903 89.2427 87.9858 89.2406C87.5374 89.234 87.0895 89.2398 86.654 89.2451C84.551 89.2355 82.4504 89.1016 80.3635 88.844C76.9372 88.4304 73.557 87.7015 70.2665 86.6667C63.4979 84.5452 57.2058 81.1444 51.7352 76.651C51.5035 76.4624 51.3433 76.1966 51.1598 75.9689L51.0708 75.6074ZM127.097 72.2614C126.948 71.6487 126.466 71.4331 125.924 71.2817C125.066 71.0512 124.183 70.9249 123.295 70.9056C121.662 70.8335 120.027 70.9788 118.432 71.3377C116.669 71.7433 115.001 72.3801 113.539 73.4665C113.365 73.5882 113.215 73.7412 113.097 73.9176C113.056 73.9932 113.032 74.0763 113.024 74.1617C113.017 74.247 113.027 74.333 113.055 74.4143C113.112 74.5976 113.325 74.6385 113.511 74.6185C113.602 74.6169 113.694 74.6091 113.784 74.5951C114.749 74.457 115.702 74.307 116.667 74.1689C118.079 73.9756 119.504 73.8312 120.926 73.885C121.534 73.9106 122.138 73.998 122.729 74.1461C123.37 74.2934 123.675 74.7513 123.726 75.3928C123.815 76.3791 123.63 77.3395 123.407 78.2891C122.975 80.2124 122.316 82.083 121.669 83.9407C121.622 84.0624 121.585 84.1882 121.56 84.3164C121.512 84.6772 121.733 84.9034 122.09 84.8023C122.311 84.7436 122.512 84.6288 122.674 84.4692C123.214 83.9284 123.719 83.354 124.185 82.7497C125.694 80.6591 126.532 78.2862 126.977 75.756C127.058 75.3072 127.114 74.8471 127.183 74.3988L127.097 72.2614Z" fill="url(#paint4_linear_884_2147)"/>
<path d="M124.369 62.6112L124.268 62.6253C123.946 62.665 123.64 62.7868 123.378 62.9789C123.322 63.0187 123.271 63.0609 123.212 63.1054C123.207 63.0951 123.204 63.084 123.203 63.0726C123.193 63.0094 123.184 62.9438 123.172 62.8806C123.156 62.7728 123.102 62.726 122.994 62.726H122.725C122.564 62.726 122.533 62.7564 122.533 62.918V67.8198C122.533 67.8433 122.533 67.8667 122.536 67.8901C122.54 67.9604 122.582 68.0049 122.65 68.0072C122.814 68.0095 122.98 68.0095 123.144 68.0072C123.212 68.0072 123.254 67.9604 123.261 67.8901C123.264 67.8667 123.264 67.8433 123.264 67.8198V66.1242C123.289 66.1453 123.304 66.157 123.315 66.1687C123.734 66.5177 124.217 66.6324 124.743 66.5294C125.221 66.4357 125.554 66.143 125.769 65.712C125.933 65.3865 126.001 65.0399 126.01 64.6792C126.022 64.2787 125.982 63.8853 125.821 63.5129C125.621 63.0539 125.291 62.7517 124.793 62.6487C124.718 62.6323 124.64 62.6253 124.563 62.6136C124.498 62.6112 124.434 62.6112 124.369 62.6112ZM123.259 63.5925C123.258 63.5772 123.261 63.5618 123.268 63.5481C123.275 63.5345 123.286 63.5231 123.299 63.5152C123.62 63.2928 123.973 63.1757 124.367 63.2061C124.715 63.2319 125.001 63.4028 125.151 63.8127C125.242 64.0633 125.266 64.3232 125.266 64.5855C125.266 64.8291 125.247 65.068 125.172 65.3022C125.013 65.801 124.647 65.9907 124.175 65.9697C123.847 65.9556 123.561 65.8291 123.299 65.6441C123.286 65.6361 123.275 65.6247 123.268 65.6111C123.261 65.5974 123.258 65.5821 123.259 65.5668C123.261 65.2366 123.259 64.9087 123.259 64.5785C123.259 64.2483 123.261 63.9227 123.259 63.5925ZM128.075 62.6112C128.052 62.6136 128.028 62.6183 128.007 62.6206C127.779 62.6302 127.553 62.6624 127.331 62.7166C127.188 62.7541 127.05 62.8056 126.912 62.8525C126.827 62.8806 126.785 62.9415 126.788 63.0328C126.79 63.1101 126.785 63.1874 126.788 63.2646C126.79 63.3771 126.837 63.4075 126.947 63.3794C127.129 63.3326 127.312 63.281 127.497 63.2459C127.785 63.192 128.075 63.1686 128.368 63.2131C128.52 63.2365 128.663 63.281 128.761 63.4099C128.848 63.5223 128.881 63.6558 128.885 63.7939C128.892 63.9883 128.89 64.1827 128.892 64.3771C128.892 64.3881 128.89 64.3991 128.888 64.4099C128.876 64.4075 128.867 64.4099 128.857 64.4075C128.611 64.3469 128.361 64.3085 128.108 64.2928C127.843 64.2787 127.581 64.2951 127.328 64.3841C127.026 64.4895 126.783 64.6722 126.64 64.9673C126.53 65.1968 126.514 65.4404 126.549 65.6863C126.596 66.0142 126.759 66.2671 127.05 66.4287C127.328 66.5833 127.63 66.602 127.937 66.5552C128.291 66.5013 128.604 66.3514 128.881 66.1242C128.892 66.114 128.905 66.1054 128.918 66.0985C128.932 66.1875 128.944 66.2718 128.96 66.3561C128.974 66.4287 129.019 66.4755 129.087 66.4779C129.213 66.4802 129.342 66.4802 129.468 66.4779C129.498 66.4776 129.526 66.466 129.547 66.4455C129.568 66.425 129.58 66.3971 129.581 66.3678C129.583 66.346 129.584 66.3241 129.583 66.3022V63.8197C129.584 63.7186 129.577 63.6176 129.562 63.5176C129.518 63.2155 129.389 62.9672 129.117 62.8056C128.96 62.7119 128.787 62.6651 128.607 62.6393C128.522 62.6276 128.438 62.6206 128.354 62.6089C128.263 62.6112 128.169 62.6112 128.075 62.6112ZM128.895 65.602C128.896 65.6157 128.893 65.6295 128.887 65.6418C128.881 65.6542 128.871 65.6647 128.86 65.6722C128.597 65.8619 128.309 65.9884 127.984 66.0212C127.85 66.0352 127.717 66.0305 127.591 65.979C127.521 65.9536 127.459 65.9122 127.408 65.858C127.358 65.8039 127.321 65.7386 127.3 65.6675C127.254 65.5198 127.253 65.3614 127.298 65.2132C127.356 65.0188 127.495 64.9087 127.682 64.8478C127.87 64.7911 128.068 64.7736 128.263 64.7963C128.459 64.8127 128.651 64.8502 128.848 64.8759C128.885 64.8806 128.897 64.8994 128.897 64.9368C128.895 65.0493 128.897 65.1593 128.897 65.2717C128.897 65.3842 128.892 65.4919 128.895 65.602ZM131.887 65.7472C131.585 64.9111 131.283 64.0742 130.981 63.2365C130.934 63.103 130.883 62.9719 130.833 62.8407C130.808 62.7728 130.758 62.7283 130.684 62.7283C130.506 62.726 130.328 62.7236 130.147 62.726C130.089 62.726 130.061 62.7728 130.072 62.8314C130.084 62.88 130.099 62.9278 130.117 62.9742C130.576 64.1101 131.037 65.246 131.501 66.3819C131.541 66.4779 131.55 66.5598 131.505 66.6582C131.428 66.8292 131.367 67.0095 131.288 67.1805C131.217 67.3327 131.1 67.4475 130.932 67.492C130.814 67.5227 130.692 67.5314 130.571 67.5177C130.513 67.513 130.454 67.499 130.396 67.4943C130.316 67.4896 130.276 67.5247 130.274 67.6067C130.271 67.6848 130.271 67.7621 130.274 67.8386C130.276 67.9674 130.321 68.0259 130.447 68.047C130.578 68.073 130.71 68.0887 130.843 68.0939C131.243 68.1032 131.562 67.9416 131.768 67.5927C131.851 67.4549 131.923 67.3108 131.983 67.1617C132.538 65.7612 133.089 64.3591 133.636 62.9555C133.653 62.914 133.666 62.8709 133.674 62.8267C133.683 62.7611 133.652 62.7236 133.587 62.7236C133.432 62.7213 133.275 62.7236 133.121 62.7236C133.082 62.7209 133.043 62.7314 133.01 62.7535C132.977 62.7755 132.953 62.8079 132.941 62.8454C132.929 62.8782 132.915 62.9087 132.903 62.9415L132.088 65.2835C132.03 65.4521 131.969 65.623 131.908 65.8034C131.899 65.7776 131.894 65.7636 131.887 65.7472Z" fill="white"/>
<defs>
<filter id="filter0_bdddd_884_2147" x="20.4323" y="13.9286" width="99.4636" height="135.82" filterUnits="userSpaceOnUse" color-interpolation-filters="sRGB">
<feFlood flood-opacity="0" result="BackgroundImageFix"/>
<feGaussianBlur in="BackgroundImageFix" stdDeviation="1.86335"/>
<feComposite in2="SourceAlpha" operator="in" result="effect1_backgroundBlur_884_2147"/>
<feColorMatrix in="SourceAlpha" type="matrix" values="0 0 0 0 0 0 0 0 0 0 0 0 0 0 0 0 0 0 127 0" result="hardAlpha"/>
<feOffset dy="1.39752"/>
<feGaussianBlur stdDeviation="1.39752"/>
<feComposite in2="hardAlpha" operator="out"/>
<feColorMatrix type="matrix" values="0 0 0 0 0 0 0 0 0 0 0 0 0 0 0 0 0 0 0.1 0"/>
<feBlend mode="normal" in2="effect1_backgroundBlur_884_2147" result="effect2_dropShadow_884_2147"/>
<feColorMatrix in="SourceAlpha" type="matrix" values="0 0 0 0 0 0 0 0 0 0 0 0 0 0 0 0 0 0 127 0" result="hardAlpha"/>
<feOffset dy="5.59006"/>
<feGaussianBlur stdDeviation="2.79503"/>
<feComposite in2="hardAlpha" operator="out"/>
<feColorMatrix type="matrix" values="0 0 0 0 0 0 0 0 0 0 0 0 0 0 0 0 0 0 0.09 0"/>
<feBlend mode="normal" in2="effect2_dropShadow_884_2147" result="effect3_dropShadow_884_2147"/>
<feColorMatrix in="SourceAlpha" type="matrix" values="0 0 0 0 0 0 0 0 0 0 0 0 0 0 0 0 0 0 127 0" result="hardAlpha"/>
<feOffset dy="12.1118"/>
<feGaussianBlur stdDeviation="3.72671"/>
<feComposite in2="hardAlpha" operator="out"/>
<feColorMatrix type="matrix" values="0 0 0 0 0 0 0 0 0 0 0 0 0 0 0 0 0 0 0.05 0"/>
<feBlend mode="normal" in2="effect3_dropShadow_884_2147" result="effect4_dropShadow_884_2147"/>
<feColorMatrix in="SourceAlpha" type="matrix" values="0 0 0 0 0 0 0 0 0 0 0 0 0 0 0 0 0 0 127 0" result="hardAlpha"/>
<feOffset dy="21.4286"/>
<feGaussianBlur stdDeviation="4.42547"/>
<feComposite in2="hardAlpha" operator="out"/>
<feColorMatrix type="matrix" values="0 0 0 0 0 0 0 0 0 0 0 0 0 0 0 0 0 0 0.01 0"/>
<feBlend mode="normal" in2="effect4_dropShadow_884_2147" result="effect5_dropShadow_884_2147"/>
<feBlend mode="normal" in="SourceGraphic" in2="effect5_dropShadow_884_2147" result="shape"/>
</filter>
<linearGradient id="paint0_linear_884_2147" x1="70.1642" y1="17.8882" x2="70.1642" y2="119.236" gradientUnits="userSpaceOnUse">
<stop stop-color="white" stop-opacity="0.8"/>
<stop offset="1" stop-color="white" stop-opacity="0.2"/>
</linearGradient>
<radialGradient id="paint1_radial_884_2147" cx="0" cy="0" r="1" gradientUnits="userSpaceOnUse" gradientTransform="translate(53.7392 35.59) rotate(49.6534) scale(56.8438 93.4429)">
<stop stop-color="white" stop-opacity="0.8"/>
<stop offset="0.307337" stop-color="white" stop-opacity="0.2"/>
<stop offset="1" stop-color="white" stop-opacity="0"/>
</radialGradient>
<radialGradient id="paint2_radial_884_2147" cx="0" cy="0" r="1" gradientUnits="userSpaceOnUse" gradientTransform="translate(53.7392 35.5901) rotate(54.667) scale(166.737 408.96)">
<stop stop-color="white" stop-opacity="0.8"/>
<stop offset="0.252201" stop-color="white" stop-opacity="0.2"/>
<stop offset="1" stop-color="white" stop-opacity="0"/>
</radialGradient>
<linearGradient id="paint3_linear_884_2147" x1="70.1642" y1="17.8882" x2="70.1642" y2="119.236" gradientUnits="userSpaceOnUse">
<stop stop-color="white"/>
<stop offset="1" stop-color="white" stop-opacity="0.8"/>
</linearGradient>
<linearGradient id="paint4_linear_884_2147" x1="92.5627" y1="67.1468" x2="94.3535" y2="90.7088" gradientUnits="userSpaceOnUse">
<stop offset="0.646654" stop-color="white"/>
<stop offset="0.951945" stop-color="#CECECE"/>
</linearGradient>
</defs>
</svg>
